ISO-10303-21;
HEADER;
FILE_DESCRIPTION(('Shape Data from truck'), '2;1');
FILE_NAME('', '2026-09-05 04:54:44.028755100', (''), (''), 'truck', '', '');
FILE_SCHEMA(('ISO-10303-203'));
ENDSEC;
DATA;
#1 = MANIFOLD_SOLID_BREP('', #2);
#2 = CLOSED_SHELL('', (#3, #10, #17, #24, #31, #38));
#3 = FACE_SURFACE('', (#4, #7), #57, .T.);
#4 = FACE_BOUND('', #5, .T.);
#5 = EDGE_LOOP('', (#6));
#6 = ORIENTED_EDGE('', *, *, #45, .F.);
#7 = FACE_BOUND('', #8, .T.);
#8 = EDGE_LOOP('', (#9));
#9 = ORIENTED_EDGE('', *, *, #46, .T.);
#10 = FACE_SURFACE('', (#11, #14), #62, .F.);
#11 = FACE_BOUND('', #12, .F.);
#12 = EDGE_LOOP('', (#13));
#13 = ORIENTED_EDGE('', *, *, #46, .T.);
#14 = FACE_BOUND('', #15, .F.);
#15 = EDGE_LOOP('', (#16));
#16 = ORIENTED_EDGE('', *, *, #47, .F.);
#17 = FACE_SURFACE('', (#18, #21), #67, .T.);
#18 = FACE_BOUND('', #19, .T.);
#19 = EDGE_LOOP('', (#20));
#20 = ORIENTED_EDGE('', *, *, #47, .F.);
#21 = FACE_BOUND('', #22, .T.);
#22 = EDGE_LOOP('', (#23));
#23 = ORIENTED_EDGE('', *, *, #48, .T.);
#24 = FACE_SURFACE('', (#25, #28), #72, .T.);
#25 = FACE_BOUND('', #26, .T.);
#26 = EDGE_LOOP('', (#27));
#27 = ORIENTED_EDGE('', *, *, #48, .F.);
#28 = FACE_BOUND('', #29, .T.);
#29 = EDGE_LOOP('', (#30));
#30 = ORIENTED_EDGE('', *, *, #49, .T.);
#31 = FACE_SURFACE('', (#32, #35), #77, .F.);
#32 = FACE_BOUND('', #33, .F.);
#33 = EDGE_LOOP('', (#34));
#34 = ORIENTED_EDGE('', *, *, #49, .T.);
#35 = FACE_BOUND('', #36, .F.);
#36 = EDGE_LOOP('', (#37));
#37 = ORIENTED_EDGE('', *, *, #50, .F.);
#38 = FACE_SURFACE('', (#39, #42), #82, .F.);
#39 = FACE_BOUND('', #40, .F.);
#40 = EDGE_LOOP('', (#41));
#41 = ORIENTED_EDGE('', *, *, #50, .T.);
#42 = FACE_BOUND('', #43, .F.);
#43 = EDGE_LOOP('', (#44));
#44 = ORIENTED_EDGE('', *, *, #45, .F.);
#45 = EDGE_CURVE('', #51, #51, #87, .T.);
#46 = EDGE_CURVE('', #52, #52, #92, .T.);
#47 = EDGE_CURVE('', #53, #53, #97, .T.);
#48 = EDGE_CURVE('', #54, #54, #102, .T.);
#49 = EDGE_CURVE('', #55, #55, #107, .T.);
#50 = EDGE_CURVE('', #56, #56, #112, .T.);
#51 = VERTEX_POINT('', #117);
#52 = VERTEX_POINT('', #118);
#53 = VERTEX_POINT('', #119);
#54 = VERTEX_POINT('', #120);
#55 = VERTEX_POINT('', #121);
#56 = VERTEX_POINT('', #122);
#57 = CONICAL_SURFACE('', #58, 0.9999999999999999);
#58 = AXIS2_PLACEMENT_3D('', #59, #60, #61);
#59 = CARTESIAN_POINT('', (0.0, 0.0, -0.5));
#60 = DIRECTION('', (0.0, 0.0, 1.0));
#61 = DIRECTION('', (1.0, 0.0, 0.0));
#62 = CONICAL_SURFACE('', #63, 0.9999999999999999);
#63 = AXIS2_PLACEMENT_3D('', #64, #65, #66);
#64 = CARTESIAN_POINT('', (0.0, 0.0, 4.5));
#65 = DIRECTION('', (0.0, 0.0, 1.0));
#66 = DIRECTION('', (1.0, 0.0, 0.0));
#67 = PLANE('', #68);
#68 = AXIS2_PLACEMENT_3D('', #69, #70, #71);
#69 = CARTESIAN_POINT('', (0.0, 0.0, 4.0));
#70 = DIRECTION('', (0.0, 0.0, 1.0));
#71 = DIRECTION('', (1.0, 0.0, 0.0));
#72 = CONICAL_SURFACE('', #73, 0.9999999999999999);
#73 = AXIS2_PLACEMENT_3D('', #74, #75, #76);
#74 = CARTESIAN_POINT('', (0.0, 0.0, 4.25));
#75 = DIRECTION('', (0.0, 0.0, 1.0));
#76 = DIRECTION('', (1.0, 0.0, 0.0));
#77 = CONICAL_SURFACE('', #78, 0.9999999999999999);
#78 = AXIS2_PLACEMENT_3D('', #79, #80, #81);
#79 = CARTESIAN_POINT('', (0.0, 0.0, -0.25));
#80 = DIRECTION('', (0.0, 0.0, 1.0));
#81 = DIRECTION('', (1.0, 0.0, 0.0));
#82 = PLANE('', #83);
#83 = AXIS2_PLACEMENT_3D('', #84, #85, #86);
#84 = CARTESIAN_POINT('', (0.0, 0.0, 0.0));
#85 = DIRECTION('', (0.0, 0.0, 1.0));
#86 = DIRECTION('', (1.0, 0.0, 0.0));
#87 = CIRCLE('', #88, 0.5);
#88 = AXIS2_PLACEMENT_3D('', #89, #90, #91);
#89 = CARTESIAN_POINT('', (0.0, 0.0, 0.0));
#90 = DIRECTION('', (0.0, 0.0, 1.0));
#91 = DIRECTION('', (1.0, 0.0, 0.0));
#92 = CIRCLE('', #93, 2.5);
#93 = AXIS2_PLACEMENT_3D('', #94, #95, #96);
#94 = CARTESIAN_POINT('', (0.0, 0.0, 2.0));
#95 = DIRECTION('', (0.0, 0.0, 1.0));
#96 = DIRECTION('', (1.0, 0.0, 0.0));
#97 = CIRCLE('', #98, 0.5);
#98 = AXIS2_PLACEMENT_3D('', #99, #100, #101);
#99 = CARTESIAN_POINT('', (0.0, 0.0, 4.0));
#100 = DIRECTION('', (0.0, 0.0, 1.0));
#101 = DIRECTION('', (1.0, 0.0, 0.0));
#102 = CIRCLE('', #103, 0.25);
#103 = AXIS2_PLACEMENT_3D('', #104, #105, #106);
#104 = CARTESIAN_POINT('', (0.0, 0.0, 4.0));
#105 = DIRECTION('', (0.0, 0.0, 1.0));
#106 = DIRECTION('', (1.0, 0.0, 0.0));
#107 = CIRCLE('', #108, 2.25);
#108 = AXIS2_PLACEMENT_3D('', #109, #110, #111);
#109 = CARTESIAN_POINT('', (0.0, 0.0, 2.0));
#110 = DIRECTION('', (0.0, 0.0, 1.0));
#111 = DIRECTION('', (1.0, 0.0, 0.0));
#112 = CIRCLE('', #113, 0.25);
#113 = AXIS2_PLACEMENT_3D('', #114, #115, #116);
#114 = CARTESIAN_POINT('', (0.0, 0.0, 0.0));
#115 = DIRECTION('', (0.0, 0.0, 1.0));
#116 = DIRECTION('', (1.0, 0.0, 0.0));
#117 = CARTESIAN_POINT('', (0.5, 0.0, 0.0));
#118 = CARTESIAN_POINT('', (2.5, 0.0, 2.0));
#119 = CARTESIAN_POINT('', (0.5, 0.0, 4.0));
#120 = CARTESIAN_POINT('', (0.25, 0.0, 4.0));
#121 = CARTESIAN_POINT('', (2.25, 0.0, 2.0));
#122 = CARTESIAN_POINT('', (0.25, 0.0, 0.0));
ENDSEC;
END-ISO-10303-21;
