v -1.0000000000e0 0.0000000000e0 0.0000000000e0
v -7.5000000000e-1 0.0000000000e0 0.0000000000e0
v -5.0000000000e-1 0.0000000000e0 0.0000000000e0
v -2.5000000000e-1 0.0000000000e0 0.0000000000e0
v 0.0000000000e0 0.0000000000e0 0.0000000000e0
v 2.5000000000e-1 0.0000000000e0 0.0000000000e0
v 5.0000000000e-1 0.0000000000e0 0.0000000000e0
v 7.5000000000e-1 0.0000000000e0 0.0000000000e0
v 1.0000000000e0 0.0000000000e0 0.0000000000e0
v 1.0000000000e0 1.2500000000e-1 1.5625000000e-2
v 1.0000000000e0 2.5000000000e-1 6.2500000000e-2
v 1.0000000000e0 3.7500000000e-1 1.4062500000e-1
v 1.0000000000e0 5.0000000000e-1 2.5000000000e-1
v 1.0000000000e0 6.2500000000e-1 3.9062500000e-1
v 1.0000000000e0 7.5000000000e-1 5.6250000000e-1
v 1.0000000000e0 8.7500000000e-1 7.6562500000e-1
v 1.0000000000e0 1.0000000000e0 1.0000000000e0
v 7.5000000000e-1 1.0000000000e0 1.0000000000e0
v 5.0000000000e-1 1.0000000000e0 1.0000000000e0
v 2.5000000000e-1 1.0000000000e0 1.0000000000e0
v 0.0000000000e0 1.0000000000e0 1.0000000000e0
v -2.5000000000e-1 1.0000000000e0 1.0000000000e0
v -5.0000000000e-1 1.0000000000e0 1.0000000000e0
v -7.5000000000e-1 1.0000000000e0 1.0000000000e0
v -1.0000000000e0 1.0000000000e0 1.0000000000e0
v -1.0000000000e0 8.7500000000e-1 7.6562500000e-1
v -1.0000000000e0 7.5000000000e-1 5.6250000000e-1
v -1.0000000000e0 6.2500000000e-1 3.9062500000e-1
v -1.0000000000e0 5.0000000000e-1 2.5000000000e-1
v -1.0000000000e0 3.7500000000e-1 1.4062500000e-1
v -1.0000000000e0 2.5000000000e-1 6.2500000000e-2
v -1.0000000000e0 1.2500000000e-1 1.5625000000e-2
v -7.5000000000e-1 1.2500000000e-1 1.5625000000e-2
v -7.5000000000e-1 2.5000000000e-1 6.2500000000e-2
v -7.5000000000e-1 3.7500000000e-1 1.4062500000e-1
v -7.5000000000e-1 5.0000000000e-1 2.5000000000e-1
v -7.5000000000e-1 6.2500000000e-1 3.9062500000e-1
v -7.5000000000e-1 7.5000000000e-1 5.6250000000e-1
v -7.5000000000e-1 8.7500000000e-1 7.6562500000e-1
v -5.0000000000e-1 1.2500000000e-1 1.5625000000e-2
v -5.0000000000e-1 2.5000000000e-1 6.2500000000e-2
v -5.0000000000e-1 3.7500000000e-1 1.4062500000e-1
v -5.0000000000e-1 5.0000000000e-1 2.5000000000e-1
v -5.0000000000e-1 6.2500000000e-1 3.9062500000e-1
v -5.0000000000e-1 7.5000000000e-1 5.6250000000e-1
v -5.0000000000e-1 8.7500000000e-1 7.6562500000e-1
v -2.5000000000e-1 1.2500000000e-1 1.5625000000e-2
v -2.5000000000e-1 2.5000000000e-1 6.2500000000e-2
v -2.5000000000e-1 3.7500000000e-1 1.4062500000e-1
v -2.5000000000e-1 5.0000000000e-1 2.5000000000e-1
v -2.5000000000e-1 6.2500000000e-1 3.9062500000e-1
v -2.5000000000e-1 7.5000000000e-1 5.6250000000e-1
v -2.5000000000e-1 8.7500000000e-1 7.6562500000e-1
v 0.0000000000e0 1.2500000000e-1 1.5625000000e-2
v 0.0000000000e0 2.5000000000e-1 6.2500000000e-2
v 0.0000000000e0 3.7500000000e-1 1.4062500000e-1
v 0.0000000000e0 5.0000000000e-1 2.5000000000e-1
v 0.0000000000e0 6.2500000000e-1 3.9062500000e-1
v 0.0000000000e0 7.5000000000e-1 5.6250000000e-1
v 0.0000000000e0 8.7500000000e-1 7.6562500000e-1
v 2.5000000000e-1 1.2500000000e-1 1.5625000000e-2
v 2.5000000000e-1 2.5000000000e-1 6.2500000000e-2
v 2.5000000000e-1 3.7500000000e-1 1.4062500000e-1
v 2.5000000000e-1 5.0000000000e-1 2.5000000000e-1
v 2.5000000000e-1 6.2500000000e-1 3.9062500000e-1
v 2.5000000000e-1 7.5000000000e-1 5.6250000000e-1
v 2.5000000000e-1 8.7500000000e-1 7.6562500000e-1
v 5.0000000000e-1 1.2500000000e-1 1.5625000000e-2
v 5.0000000000e-1 2.5000000000e-1 6.2500000000e-2
v 5.0000000000e-1 3.7500000000e-1 1.4062500000e-1
v 5.0000000000e-1 5.0000000000e-1 2.5000000000e-1
v 5.0000000000e-1 6.2500000000e-1 3.9062500000e-1
v 5.0000000000e-1 7.5000000000e-1 5.6250000000e-1
v 5.0000000000e-1 8.7500000000e-1 7.6562500000e-1
v 7.5000000000e-1 1.2500000000e-1 1.5625000000e-2
v 7.5000000000e-1 2.5000000000e-1 6.2500000000e-2
v 7.5000000000e-1 3.7500000000e-1 1.4062500000e-1
v 7.5000000000e-1 5.0000000000e-1 2.5000000000e-1
v 7.5000000000e-1 6.2500000000e-1 3.9062500000e-1
v 7.5000000000e-1 7.5000000000e-1 5.6250000000e-1
v 7.5000000000e-1 8.7500000000e-1 7.6562500000e-1
v 1.0000000000e0 0.0000000000e0 0.0000000000e0
v 7.5000000000e-1 0.0000000000e0 0.0000000000e0
v 5.0000000000e-1 0.0000000000e0 0.0000000000e0
v 2.5000000000e-1 0.0000000000e0 0.0000000000e0
v 0.0000000000e0 0.0000000000e0 0.0000000000e0
v -2.5000000000e-1 0.0000000000e0 0.0000000000e0
v -5.0000000000e-1 0.0000000000e0 0.0000000000e0
v -7.5000000000e-1 0.0000000000e0 0.0000000000e0
v -1.0000000000e0 0.0000000000e0 0.0000000000e0
v -1.0000000000e0 1.5625000000e-2 -1.2500000000e-1
v -1.0000000000e0 6.2500000000e-2 -2.5000000000e-1
v -1.0000000000e0 1.4062500000e-1 -3.7500000000e-1
v -1.0000000000e0 2.5000000000e-1 -5.0000000000e-1
v -1.0000000000e0 3.9062500000e-1 -6.2500000000e-1
v -1.0000000000e0 5.6250000000e-1 -7.5000000000e-1
v -1.0000000000e0 7.6562500000e-1 -8.7500000000e-1
v -1.0000000000e0 1.0000000000e0 -1.0000000000e0
v -7.5000000000e-1 1.0000000000e0 -1.0000000000e0
v -5.0000000000e-1 1.0000000000e0 -1.0000000000e0
v -2.5000000000e-1 1.0000000000e0 -1.0000000000e0
v 0.0000000000e0 1.0000000000e0 -1.0000000000e0
v 2.5000000000e-1 1.0000000000e0 -1.0000000000e0
v 5.0000000000e-1 1.0000000000e0 -1.0000000000e0
v 7.5000000000e-1 1.0000000000e0 -1.0000000000e0
v 1.0000000000e0 1.0000000000e0 -1.0000000000e0
v 1.0000000000e0 7.6562500000e-1 -8.7500000000e-1
v 1.0000000000e0 5.6250000000e-1 -7.5000000000e-1
v 1.0000000000e0 3.9062500000e-1 -6.2500000000e-1
v 1.0000000000e0 2.5000000000e-1 -5.0000000000e-1
v 1.0000000000e0 1.4062500000e-1 -3.7500000000e-1
v 1.0000000000e0 6.2500000000e-2 -2.5000000000e-1
v 1.0000000000e0 1.5625000000e-2 -1.2500000000e-1
v 7.5000000000e-1 3.9550781250e-2 -1.2500000000e-1
v 7.5000000000e-1 1.0351562500e-1 -2.5000000000e-1
v 7.5000000000e-1 1.9189453125e-1 -3.7500000000e-1
v 7.5000000000e-1 3.0468750000e-1 -5.0000000000e-1
v 7.5000000000e-1 4.4189453125e-1 -6.2500000000e-1
v 7.5000000000e-1 6.0351562500e-1 -7.5000000000e-1
v 7.5000000000e-1 7.8955078125e-1 -8.7500000000e-1
v 5.0000000000e-1 5.6640625000e-2 -1.2500000000e-1
v 5.0000000000e-1 1.3281250000e-1 -2.5000000000e-1
v 5.0000000000e-1 2.2851562500e-1 -3.7500000000e-1
v 5.0000000000e-1 3.4375000000e-1 -5.0000000000e-1
v 5.0000000000e-1 4.7851562500e-1 -6.2500000000e-1
v 5.0000000000e-1 6.3281250000e-1 -7.5000000000e-1
v 5.0000000000e-1 8.0664062500e-1 -8.7500000000e-1
v 2.5000000000e-1 6.6894531250e-2 -1.2500000000e-1
v 2.5000000000e-1 1.5039062500e-1 -2.5000000000e-1
v 2.5000000000e-1 2.5048828125e-1 -3.7500000000e-1
v 2.5000000000e-1 3.6718750000e-1 -5.0000000000e-1
v 2.5000000000e-1 5.0048828125e-1 -6.2500000000e-1
v 2.5000000000e-1 6.5039062500e-1 -7.5000000000e-1
v 2.5000000000e-1 8.1689453125e-1 -8.7500000000e-1
v 0.0000000000e0 7.0312500000e-2 -1.2500000000e-1
v 0.0000000000e0 1.5625000000e-1 -2.5000000000e-1
v 0.0000000000e0 2.5781250000e-1 -3.7500000000e-1
v 0.0000000000e0 3.7500000000e-1 -5.0000000000e-1
v 0.0000000000e0 5.0781250000e-1 -6.2500000000e-1
v 0.0000000000e0 6.5625000000e-1 -7.5000000000e-1
v 0.0000000000e0 8.2031250000e-1 -8.7500000000e-1
v -2.5000000000e-1 6.6894531250e-2 -1.2500000000e-1
v -2.5000000000e-1 1.5039062500e-1 -2.5000000000e-1
v -2.5000000000e-1 2.5048828125e-1 -3.7500000000e-1
v -2.5000000000e-1 3.6718750000e-1 -5.0000000000e-1
v -2.5000000000e-1 5.0048828125e-1 -6.2500000000e-1
v -2.5000000000e-1 6.5039062500e-1 -7.5000000000e-1
v -2.5000000000e-1 8.1689453125e-1 -8.7500000000e-1
v -5.0000000000e-1 5.6640625000e-2 -1.2500000000e-1
v -5.0000000000e-1 1.3281250000e-1 -2.5000000000e-1
v -5.0000000000e-1 2.2851562500e-1 -3.7500000000e-1
v -5.0000000000e-1 3.4375000000e-1 -5.0000000000e-1
v -5.0000000000e-1 4.7851562500e-1 -6.2500000000e-1
v -5.0000000000e-1 6.3281250000e-1 -7.5000000000e-1
v -5.0000000000e-1 8.0664062500e-1 -8.7500000000e-1
v -7.5000000000e-1 3.9550781250e-2 -1.2500000000e-1
v -7.5000000000e-1 1.0351562500e-1 -2.5000000000e-1
v -7.5000000000e-1 1.9189453125e-1 -3.7500000000e-1
v -7.5000000000e-1 3.0468750000e-1 -5.0000000000e-1
v -7.5000000000e-1 4.4189453125e-1 -6.2500000000e-1
v -7.5000000000e-1 6.0351562500e-1 -7.5000000000e-1
v -7.5000000000e-1 7.8955078125e-1 -8.7500000000e-1
vt 0.0000000000e0 0.0000000000e0
vt 1.2500000000e-1 0.0000000000e0
vt 2.5000000000e-1 0.0000000000e0
vt 3.7500000000e-1 0.0000000000e0
vt 5.0000000000e-1 0.0000000000e0
vt 6.2500000000e-1 0.0000000000e0
vt 7.5000000000e-1 0.0000000000e0
vt 8.7500000000e-1 0.0000000000e0
vt 1.0000000000e0 0.0000000000e0
vt 1.0000000000e0 1.2500000000e-1
vt 1.0000000000e0 2.5000000000e-1
vt 1.0000000000e0 3.7500000000e-1
vt 1.0000000000e0 5.0000000000e-1
vt 1.0000000000e0 6.2500000000e-1
vt 1.0000000000e0 7.5000000000e-1
vt 1.0000000000e0 8.7500000000e-1
vt 1.0000000000e0 1.0000000000e0
vt 8.7500000000e-1 1.0000000000e0
vt 7.5000000000e-1 1.0000000000e0
vt 6.2500000000e-1 1.0000000000e0
vt 5.0000000000e-1 1.0000000000e0
vt 3.7500000000e-1 1.0000000000e0
vt 2.5000000000e-1 1.0000000000e0
vt 1.2500000000e-1 1.0000000000e0
vt 0.0000000000e0 1.0000000000e0
vt 4.1007791781e-22 8.7500000000e-1
vt 4.1008208926e-22 7.5000000000e-1
vt 4.0095289844e-19 6.2500000000e-1
vt 4.0074830654e-19 5.0000000000e-1
vt 4.0074830763e-19 3.7500000000e-1
vt 4.0092763641e-19 2.5000000000e-1
vt 4.0096502673e-19 1.2500000000e-1
vt 1.2500000000e-1 1.2500000000e-1
vt 1.2500000000e-1 2.5000000000e-1
vt 1.2500000000e-1 3.7500000000e-1
vt 1.2500000000e-1 5.0000000000e-1
vt 1.2500000000e-1 6.2500000000e-1
vt 1.2500000000e-1 7.5000000000e-1
vt 1.2500000000e-1 8.7500000000e-1
vt 2.5000000000e-1 1.2500000000e-1
vt 2.5000000000e-1 2.5000000000e-1
vt 2.5000000000e-1 3.7500000000e-1
vt 2.5000000000e-1 5.0000000000e-1
vt 2.5000000000e-1 6.2500000000e-1
vt 2.5000000000e-1 7.5000000000e-1
vt 2.5000000000e-1 8.7500000000e-1
vt 3.7500000000e-1 1.2500000000e-1
vt 3.7500000000e-1 2.5000000000e-1
vt 3.7500000000e-1 3.7500000000e-1
vt 3.7500000000e-1 5.0000000000e-1
vt 3.7500000000e-1 6.2500000000e-1
vt 3.7500000000e-1 7.5000000000e-1
vt 3.7500000000e-1 8.7500000000e-1
vt 5.0000000000e-1 1.2500000000e-1
vt 5.0000000000e-1 2.5000000000e-1
vt 5.0000000000e-1 3.7500000000e-1
vt 5.0000000000e-1 5.0000000000e-1
vt 5.0000000000e-1 6.2500000000e-1
vt 5.0000000000e-1 7.5000000000e-1
vt 5.0000000000e-1 8.7500000000e-1
vt 6.2500000000e-1 1.2500000000e-1
vt 6.2500000000e-1 2.5000000000e-1
vt 6.2500000000e-1 3.7500000000e-1
vt 6.2500000000e-1 5.0000000000e-1
vt 6.2500000000e-1 6.2500000000e-1
vt 6.2500000000e-1 7.5000000000e-1
vt 6.2500000000e-1 8.7500000000e-1
vt 7.5000000000e-1 1.2500000000e-1
vt 7.5000000000e-1 2.5000000000e-1
vt 7.5000000000e-1 3.7500000000e-1
vt 7.5000000000e-1 5.0000000000e-1
vt 7.5000000000e-1 6.2500000000e-1
vt 7.5000000000e-1 7.5000000000e-1
vt 7.5000000000e-1 8.7500000000e-1
vt 8.7500000000e-1 1.2500000000e-1
vt 8.7500000000e-1 2.5000000000e-1
vt 8.7500000000e-1 3.7500000000e-1
vt 8.7500000000e-1 5.0000000000e-1
vt 8.7500000000e-1 6.2500000000e-1
vt 8.7500000000e-1 7.5000000000e-1
vt 8.7500000000e-1 8.7500000000e-1
vt 0.0000000000e0 0.0000000000e0
vt 1.2500000000e-1 0.0000000000e0
vt 2.5000000000e-1 0.0000000000e0
vt 3.7500000000e-1 0.0000000000e0
vt 5.0000000000e-1 0.0000000000e0
vt 6.2500000000e-1 0.0000000000e0
vt 7.5000000000e-1 0.0000000000e0
vt 8.7500000000e-1 0.0000000000e0
vt 1.0000000000e0 0.0000000000e0
vt 1.0000000000e0 1.2500000000e-1
vt 1.0000000000e0 2.5000000000e-1
vt 1.0000000000e0 3.7500000000e-1
vt 1.0000000000e0 5.0000000000e-1
vt 1.0000000000e0 6.2500000000e-1
vt 1.0000000000e0 7.5000000000e-1
vt 1.0000000000e0 8.7500000000e-1
vt 1.0000000000e0 1.0000000000e0
vt 8.7500000000e-1 1.0000000000e0
vt 7.5000000000e-1 1.0000000000e0
vt 6.2500000000e-1 1.0000000000e0
vt 5.0000000000e-1 1.0000000000e0
vt 3.7500000000e-1 1.0000000000e0
vt 2.5000000000e-1 1.0000000000e0
vt 1.2500000000e-1 1.0000000000e0
vt 0.0000000000e0 1.0000000000e0
vt 1.0955417421e-17 8.7500000000e-1
vt 2.8322642334e-17 7.5000000000e-1
vt 3.1197276733e-17 6.2500000000e-1
vt 1.3132818537e-17 5.0000000000e-1
vt 1.0173821561e-16 3.7500000000e-1
vt 6.4970462678e-17 2.5000000000e-1
vt 1.0389840370e-16 1.2500000000e-1
vt 1.2500000000e-1 1.2500000000e-1
vt 1.2500000000e-1 2.5000000000e-1
vt 1.2500000000e-1 3.7500000000e-1
vt 1.2500000000e-1 5.0000000000e-1
vt 1.2500000000e-1 6.2500000000e-1
vt 1.2500000000e-1 7.5000000000e-1
vt 1.2500000000e-1 8.7500000000e-1
vt 2.5000000000e-1 1.2500000000e-1
vt 2.5000000000e-1 2.5000000000e-1
vt 2.5000000000e-1 3.7500000000e-1
vt 2.5000000000e-1 5.0000000000e-1
vt 2.5000000000e-1 6.2500000000e-1
vt 2.5000000000e-1 7.5000000000e-1
vt 2.5000000000e-1 8.7500000000e-1
vt 3.7500000000e-1 1.2500000000e-1
vt 3.7500000000e-1 2.5000000000e-1
vt 3.7500000000e-1 3.7500000000e-1
vt 3.7500000000e-1 5.0000000000e-1
vt 3.7500000000e-1 6.2500000000e-1
vt 3.7500000000e-1 7.5000000000e-1
vt 3.7500000000e-1 8.7500000000e-1
vt 5.0000000000e-1 1.2500000000e-1
vt 5.0000000000e-1 2.5000000000e-1
vt 5.0000000000e-1 3.7500000000e-1
vt 5.0000000000e-1 5.0000000000e-1
vt 5.0000000000e-1 6.2500000000e-1
vt 5.0000000000e-1 7.5000000000e-1
vt 5.0000000000e-1 8.7500000000e-1
vt 6.2500000000e-1 1.2500000000e-1
vt 6.2500000000e-1 2.5000000000e-1
vt 6.2500000000e-1 3.7500000000e-1
vt 6.2500000000e-1 5.0000000000e-1
vt 6.2500000000e-1 6.2500000000e-1
vt 6.2500000000e-1 7.5000000000e-1
vt 6.2500000000e-1 8.7500000000e-1
vt 7.5000000000e-1 1.2500000000e-1
vt 7.5000000000e-1 2.5000000000e-1
vt 7.5000000000e-1 3.7500000000e-1
vt 7.5000000000e-1 5.0000000000e-1
vt 7.5000000000e-1 6.2500000000e-1
vt 7.5000000000e-1 7.5000000000e-1
vt 7.5000000000e-1 8.7500000000e-1
vt 8.7500000000e-1 1.2500000000e-1
vt 8.7500000000e-1 2.5000000000e-1
vt 8.7500000000e-1 3.7500000000e-1
vt 8.7500000000e-1 5.0000000000e-1
vt 8.7500000000e-1 6.2500000000e-1
vt 8.7500000000e-1 7.5000000000e-1
vt 8.7500000000e-1 8.7500000000e-1
vn 0.0000000000e0 0.0000000000e0 1.0000000000e0
vn 0.0000000000e0 0.0000000000e0 1.0000000000e0
vn 0.0000000000e0 0.0000000000e0 1.0000000000e0
vn 0.0000000000e0 0.0000000000e0 1.0000000000e0
vn 0.0000000000e0 0.0000000000e0 1.0000000000e0
vn 0.0000000000e0 0.0000000000e0 1.0000000000e0
vn 0.0000000000e0 0.0000000000e0 1.0000000000e0
vn 0.0000000000e0 0.0000000000e0 1.0000000000e0
vn 0.0000000000e0 0.0000000000e0 1.0000000000e0
vn 0.0000000000e0 -2.4253562504e-1 9.7014250015e-1
vn 0.0000000000e0 -4.4721359550e-1 8.9442719100e-1
vn 0.0000000000e0 -6.0000000000e-1 8.0000000000e-1
vn 0.0000000000e0 -7.0710678119e-1 7.0710678119e-1
vn 0.0000000000e0 -7.8086880944e-1 6.2469504755e-1
vn -9.2376139442e-17 -8.3205029434e-1 5.5470019623e-1
vn 0.0000000000e0 -8.6824314212e-1 4.9613893836e-1
vn 0.0000000000e0 -8.9442719100e-1 4.4721359550e-1
vn 0.0000000000e0 -8.9442719100e-1 4.4721359550e-1
vn 0.0000000000e0 -8.9442719100e-1 4.4721359550e-1
vn 0.0000000000e0 -8.9442719100e-1 4.4721359550e-1
vn 0.0000000000e0 -8.9442719100e-1 4.4721359550e-1
vn 0.0000000000e0 -8.9442719100e-1 4.4721359550e-1
vn 0.0000000000e0 -8.9442719100e-1 4.4721359550e-1
vn 0.0000000000e0 -8.9442719100e-1 4.4721359550e-1
vn 0.0000000000e0 -8.9442719100e-1 4.4721359550e-1
vn 0.0000000000e0 -8.6824314212e-1 4.9613893836e-1
vn -9.2376139442e-17 -8.3205029434e-1 5.5470019623e-1
vn 0.0000000000e0 -7.8086880944e-1 6.2469504755e-1
vn 0.0000000000e0 -7.0710678119e-1 7.0710678119e-1
vn 0.0000000000e0 -6.0000000000e-1 8.0000000000e-1
vn 0.0000000000e0 -4.4721359550e-1 8.9442719100e-1
vn 0.0000000000e0 -2.4253562504e-1 9.7014250015e-1
vn 0.0000000000e0 -2.4253562504e-1 9.7014250015e-1
vn 0.0000000000e0 -4.4721359550e-1 8.9442719100e-1
vn 0.0000000000e0 -6.0000000000e-1 8.0000000000e-1
vn 0.0000000000e0 -7.0710678119e-1 7.0710678119e-1
vn 0.0000000000e0 -7.8086880944e-1 6.2469504755e-1
vn 0.0000000000e0 -8.3205029434e-1 5.5470019623e-1
vn 0.0000000000e0 -8.6824314212e-1 4.9613893836e-1
vn 0.0000000000e0 -2.4253562504e-1 9.7014250015e-1
vn 0.0000000000e0 -4.4721359550e-1 8.9442719100e-1
vn 0.0000000000e0 -6.0000000000e-1 8.0000000000e-1
vn 0.0000000000e0 -7.0710678119e-1 7.0710678119e-1
vn 0.0000000000e0 -7.8086880944e-1 6.2469504755e-1
vn 0.0000000000e0 -8.3205029434e-1 5.5470019623e-1
vn 0.0000000000e0 -8.6824314212e-1 4.9613893836e-1
vn 0.0000000000e0 -2.4253562504e-1 9.7014250015e-1
vn 0.0000000000e0 -4.4721359550e-1 8.9442719100e-1
vn 0.0000000000e0 -6.0000000000e-1 8.0000000000e-1
vn 0.0000000000e0 -7.0710678119e-1 7.0710678119e-1
vn 0.0000000000e0 -7.8086880944e-1 6.2469504755e-1
vn 0.0000000000e0 -8.3205029434e-1 5.5470019623e-1
vn 0.0000000000e0 -8.6824314212e-1 4.9613893836e-1
vn 0.0000000000e0 -2.4253562504e-1 9.7014250015e-1
vn 0.0000000000e0 -4.4721359550e-1 8.9442719100e-1
vn 0.0000000000e0 -6.0000000000e-1 8.0000000000e-1
vn 0.0000000000e0 -7.0710678119e-1 7.0710678119e-1
vn 0.0000000000e0 -7.8086880944e-1 6.2469504755e-1
vn 0.0000000000e0 -8.3205029434e-1 5.5470019623e-1
vn 0.0000000000e0 -8.6824314212e-1 4.9613893836e-1
vn 0.0000000000e0 -2.4253562504e-1 9.7014250015e-1
vn 0.0000000000e0 -4.4721359550e-1 8.9442719100e-1
vn 0.0000000000e0 -6.0000000000e-1 8.0000000000e-1
vn 0.0000000000e0 -7.0710678119e-1 7.0710678119e-1
vn 0.0000000000e0 -7.8086880944e-1 6.2469504755e-1
vn 0.0000000000e0 -8.3205029434e-1 5.5470019623e-1
vn 0.0000000000e0 -8.6824314212e-1 4.9613893836e-1
vn 0.0000000000e0 -2.4253562504e-1 9.7014250015e-1
vn 0.0000000000e0 -4.4721359550e-1 8.9442719100e-1
vn 0.0000000000e0 -6.0000000000e-1 8.0000000000e-1
vn 0.0000000000e0 -7.0710678119e-1 7.0710678119e-1
vn 0.0000000000e0 -7.8086880944e-1 6.2469504755e-1
vn 0.0000000000e0 -8.3205029434e-1 5.5470019623e-1
vn 0.0000000000e0 -8.6824314212e-1 4.9613893836e-1
vn 0.0000000000e0 -2.4253562504e-1 9.7014250015e-1
vn 0.0000000000e0 -4.4721359550e-1 8.9442719100e-1
vn 0.0000000000e0 -6.0000000000e-1 8.0000000000e-1
vn 0.0000000000e0 -7.0710678119e-1 7.0710678119e-1
vn 0.0000000000e0 -7.8086880944e-1 6.2469504755e-1
vn 0.0000000000e0 -8.3205029434e-1 5.5470019623e-1
vn 0.0000000000e0 -8.6824314212e-1 4.9613893836e-1
vn -0.0000000000e0 -1.0000000000e0 -0.0000000000e0
vn -0.0000000000e0 -9.7690001740e-1 -2.1369687881e-1
vn -0.0000000000e0 -9.3632917757e-1 -3.5112344159e-1
vn -0.0000000000e0 -9.0545893596e-1 -4.2443387623e-1
vn -0.0000000000e0 -8.9442719100e-1 -4.4721359550e-1
vn -0.0000000000e0 -9.0545893596e-1 -4.2443387623e-1
vn -0.0000000000e0 -9.3632917757e-1 -3.5112344159e-1
vn -0.0000000000e0 -9.7690001740e-1 -2.1369687881e-1
vn -0.0000000000e0 -1.0000000000e0 -0.0000000000e0
vn 1.0551698072e-1 -9.6472668085e-1 -2.4118167021e-1
vn 1.6539535393e-1 -8.8210855427e-1 -4.4105427714e-1
vn 1.8428853505e-1 -7.8629774955e-1 -5.8972331216e-1
vn 1.7407765596e-1 -6.9631062382e-1 -6.9631062382e-1
vn 1.4486838248e-1 -6.1810509857e-1 -7.7263137322e-1
vn 1.0344827586e-1 -5.5172413793e-1 -8.2758620690e-1
vn 5.4185474733e-2 -4.9541005470e-1 -8.6696759572e-1
vn -0.0000000000e0 -4.4721359550e-1 -8.9442719100e-1
vn -0.0000000000e0 -4.8953475671e-1 -8.7198378539e-1
vn -0.0000000000e0 -5.2409742566e-1 -8.5165831670e-1
vn -0.0000000000e0 -5.4678890094e-1 -8.3727050456e-1
vn -0.0000000000e0 -5.5470019623e-1 -8.3205029434e-1
vn -0.0000000000e0 -5.4678890094e-1 -8.3727050456e-1
vn -0.0000000000e0 -5.2409742566e-1 -8.5165831670e-1
vn -0.0000000000e0 -4.8953475671e-1 -8.7198378539e-1
vn -0.0000000000e0 -4.4721359550e-1 -8.9442719100e-1
vn -5.4185474733e-2 -4.9541005470e-1 -8.6696759572e-1
vn -1.0344827586e-1 -5.5172413793e-1 -8.2758620690e-1
vn -1.4486838248e-1 -6.1810509857e-1 -7.7263137322e-1
vn -1.7407765596e-1 -6.9631062382e-1 -6.9631062382e-1
vn -1.8428853505e-1 -7.8629774955e-1 -5.8972331216e-1
vn -1.6539535393e-1 -8.8210855427e-1 -4.4105427714e-1
vn -1.0551698072e-1 -9.6472668085e-1 -2.4118167021e-1
vn -7.5574290976e-2 -9.2128659476e-1 -3.8147023064e-1
vn -1.1922883131e-1 -8.4784946709e-1 -5.1665826901e-1
vn -1.3568195528e-1 -7.7187956782e-1 -6.2112183973e-1
vn -1.3143238630e-1 -7.0097272694e-1 -7.0097272694e-1
vn -1.1208152626e-1 -6.3761934939e-1 -7.6215437856e-1
vn -8.1824944490e-2 -5.8186627193e-1 -8.0915778440e-1
vn -4.3710840941e-2 -5.3285596575e-1 -8.4507625818e-1
vn -4.8239166078e-2 -8.8208760829e-1 -4.6860904190e-1
vn -7.7024424894e-2 -8.2159386554e-1 -5.6484578256e-1
vn -8.9208310098e-2 -7.6124424617e-1 -6.4229983270e-1
vn -8.8045090633e-2 -7.0436072506e-1 -7.0436072506e-1
vn -7.6434175334e-2 -6.5223829618e-1 -7.5415052996e-1
vn -5.6725067525e-2 -6.0506738693e-1 -7.9415094534e-1
vn -3.0763064658e-2 -5.6252461088e-1 -8.2620802223e-1
vn -2.3424475694e-2 -8.5666653965e-1 -5.1533846526e-1
vn -3.7754521112e-2 -8.0542978373e-1 -5.9148749743e-1
vn -4.4223935184e-2 -7.5475516047e-1 -6.5451424072e-1
vn -4.4151078569e-2 -7.0641725710e-1 -7.0641725710e-1
vn -3.8747790766e-2 -6.6129562908e-1 -7.4912395481e-1
vn -2.9048282870e-2 -6.1969670122e-1 -7.8430363748e-1
vn -1.5902972399e-2 -5.8159441916e-1 -8.1332344554e-1
vn -0.0000000000e0 -8.4799830401e-1 -5.2999894000e-1
vn -0.0000000000e0 -8.0000000000e-1 -6.0000000000e-1
vn -0.0000000000e0 -7.5257669471e-1 -6.5850460787e-1
vn -0.0000000000e0 -7.0710678119e-1 -7.0710678119e-1
vn -0.0000000000e0 -6.6436383883e-1 -7.4740931868e-1
vn -0.0000000000e0 -6.2469504755e-1 -7.8086880944e-1
vn -0.0000000000e0 -5.8817169768e-1 -8.0873608430e-1
vn 2.3424475694e-2 -8.5666653965e-1 -5.1533846526e-1
vn 3.7754521112e-2 -8.0542978373e-1 -5.9148749743e-1
vn 4.4223935184e-2 -7.5475516047e-1 -6.5451424072e-1
vn 4.4151078569e-2 -7.0641725710e-1 -7.0641725710e-1
vn 3.8747790766e-2 -6.6129562908e-1 -7.4912395481e-1
vn 2.9048282870e-2 -6.1969670122e-1 -7.8430363748e-1
vn 1.5902972399e-2 -5.8159441916e-1 -8.1332344554e-1
vn 4.8239166078e-2 -8.8208760829e-1 -4.6860904190e-1
vn 7.7024424894e-2 -8.2159386554e-1 -5.6484578256e-1
vn 8.9208310098e-2 -7.6124424617e-1 -6.4229983270e-1
vn 8.8045090633e-2 -7.0436072506e-1 -7.0436072506e-1
vn 7.6434175334e-2 -6.5223829618e-1 -7.5415052996e-1
vn 5.6725067525e-2 -6.0506738693e-1 -7.9415094534e-1
vn 3.0763064658e-2 -5.6252461088e-1 -8.2620802223e-1
vn 7.5574290976e-2 -9.2128659476e-1 -3.8147023064e-1
vn 1.1922883131e-1 -8.4784946709e-1 -5.1665826901e-1
vn 1.3568195528e-1 -7.7187956782e-1 -6.2112183973e-1
vn 1.3143238630e-1 -7.0097272694e-1 -7.0097272694e-1
vn 1.1208152626e-1 -6.3761934939e-1 -7.6215437856e-1
vn 8.1824944490e-2 -5.8186627193e-1 -8.0915778440e-1
vn 4.3710840941e-2 -5.3285596575e-1 -8.4507625818e-1
f 37/37/37 38/38/38 27/27/27
f 32/32/32 2/2/2 33/33/33
f 33/33/33 3/3/3 40/40/40
f 40/40/40 4/4/4 47/47/47
f 47/47/47 5/5/5 54/54/54
f 54/54/54 6/6/6 61/61/61
f 7/7/7 8/8/8 68/68/68
f 8/8/8 9/9/9 10/10/10
f 8/8/8 10/10/10 75/75/75
f 7/7/7 61/61/61 6/6/6
f 5/5/5 47/47/47 4/4/4
f 76/76/76 11/11/11 77/77/77
f 61/61/61 68/68/68 62/62/62
f 63/63/63 64/64/64 57/57/57
f 73/73/73 79/79/79 80/80/80
f 17/17/17 18/18/18 16/16/16
f 80/80/80 16/16/16 81/81/81
f 14/14/14 15/15/15 79/79/79
f 75/75/75 11/11/11 76/76/76
f 77/77/77 12/12/12 78/78/78
f 56/56/56 57/57/57 50/50/50
f 15/15/15 80/80/80 79/79/79
f 23/23/23 24/24/24 39/39/39
f 26/26/26 24/24/24 25/25/25
f 32/32/32 1/1/1 2/2/2
f 43/43/43 44/44/44 37/37/37
f 42/42/42 43/43/43 36/36/36
f 33/33/33 34/34/34 32/32/32
f 29/29/29 30/30/30 35/35/35
f 3/3/3 33/33/33 2/2/2
f 30/30/30 31/31/31 35/35/35
f 31/31/31 32/32/32 34/34/34
f 4/4/4 40/40/40 3/3/3
f 6/6/6 54/54/54 5/5/5
f 28/28/28 29/29/29 36/36/36
f 34/34/34 35/35/35 31/31/31
f 27/27/27 28/28/28 37/37/37
f 35/35/35 36/36/36 29/29/29
f 26/26/26 27/27/27 38/38/38
f 36/36/36 37/37/37 28/28/28
f 46/46/46 52/52/52 53/53/53
f 24/24/24 26/26/26 39/39/39
f 26/26/26 38/38/38 39/39/39
f 39/39/39 45/45/45 46/46/46
f 35/35/35 34/34/34 41/41/41
f 34/34/34 33/33/33 40/40/40
f 36/36/36 35/35/35 42/42/42
f 40/40/40 41/41/41 34/34/34
f 37/37/37 36/36/36 43/43/43
f 41/41/41 42/42/42 35/35/35
f 12/12/12 77/77/77 11/11/11
f 38/38/38 37/37/37 44/44/44
f 50/50/50 51/51/51 44/44/44
f 38/38/38 45/45/45 39/39/39
f 45/45/45 38/38/38 44/44/44
f 53/53/53 59/59/59 60/60/60
f 22/22/22 23/23/23 46/46/46
f 23/23/23 39/39/39 46/46/46
f 42/42/42 41/41/41 48/48/48
f 41/41/41 40/40/40 47/47/47
f 43/43/43 42/42/42 49/49/49
f 47/47/47 48/48/48 41/41/41
f 44/44/44 43/43/43 50/50/50
f 48/48/48 49/49/49 42/42/42
f 45/45/45 44/44/44 51/51/51
f 49/49/49 50/50/50 43/43/43
f 64/64/64 65/65/65 58/58/58
f 45/45/45 52/52/52 46/46/46
f 52/52/52 45/45/45 51/51/51
f 60/60/60 66/66/66 67/67/67
f 21/21/21 22/22/22 53/53/53
f 22/22/22 46/46/46 53/53/53
f 49/49/49 48/48/48 55/55/55
f 48/48/48 47/47/47 54/54/54
f 50/50/50 49/49/49 56/56/56
f 54/54/54 55/55/55 48/48/48
f 51/51/51 50/50/50 57/57/57
f 55/55/55 56/56/56 49/49/49
f 13/13/13 78/78/78 12/12/12
f 52/52/52 51/51/51 58/58/58
f 52/52/52 59/59/59 53/53/53
f 57/57/57 58/58/58 51/51/51
f 59/59/59 52/52/52 58/58/58
f 67/67/67 73/73/73 74/74/74
f 20/20/20 21/21/21 60/60/60
f 21/21/21 53/53/53 60/60/60
f 56/56/56 55/55/55 62/62/62
f 55/55/55 54/54/54 61/61/61
f 57/57/57 56/56/56 63/63/63
f 61/61/61 62/62/62 55/55/55
f 58/58/58 57/57/57 64/64/64
f 62/62/62 63/63/63 56/56/56
f 13/13/13 14/14/14 78/78/78
f 59/59/59 58/58/58 65/65/65
f 78/78/78 14/14/14 79/79/79
f 16/16/16 18/18/18 81/81/81
f 59/59/59 66/66/66 60/60/60
f 66/66/66 59/59/59 65/65/65
f 19/19/19 20/20/20 67/67/67
f 20/20/20 60/60/60 67/67/67
f 68/68/68 61/61/61 7/7/7
f 10/10/10 11/11/11 75/75/75
f 63/63/63 62/62/62 69/69/69
f 62/62/62 68/68/68 69/69/69
f 63/63/63 70/70/70 64/64/64
f 70/70/70 63/63/63 69/69/69
f 64/64/64 71/71/71 65/65/65
f 64/64/64 70/70/70 71/71/71
f 65/65/65 72/72/72 66/66/66
f 72/72/72 65/65/65 71/71/71
f 66/66/66 73/73/73 67/67/67
f 73/73/73 66/66/66 72/72/72
f 18/18/18 19/19/19 74/74/74
f 19/19/19 67/67/67 74/74/74
f 68/68/68 75/75/75 69/69/69
f 68/68/68 8/8/8 75/75/75
f 70/70/70 69/69/69 76/76/76
f 69/69/69 75/75/75 76/76/76
f 70/70/70 77/77/77 71/71/71
f 77/77/77 70/70/70 76/76/76
f 71/71/71 78/78/78 72/72/72
f 71/71/71 77/77/77 78/78/78
f 72/72/72 79/79/79 73/73/73
f 72/72/72 78/78/78 79/79/79
f 80/80/80 15/15/15 16/16/16
f 73/73/73 80/80/80 74/74/74
f 18/18/18 74/74/74 81/81/81
f 74/74/74 80/80/80 81/81/81
f 118/118/118 119/119/119 108/108/108
f 113/113/113 83/83/83 114/114/114
f 114/114/114 84/84/84 121/121/121
f 116/116/116 115/115/115 122/122/122
f 128/128/128 86/86/86 135/135/135
f 135/135/135 87/87/87 142/142/142
f 88/88/88 89/89/89 149/149/149
f 89/89/89 90/90/90 91/91/91
f 142/142/142 88/88/88 149/149/149
f 88/88/88 142/142/142 87/87/87
f 157/157/157 92/92/92 158/158/158
f 86/86/86 128/128/128 85/85/85
f 129/129/129 130/130/130 123/123/123
f 144/144/144 145/145/145 138/138/138
f 154/154/154 160/160/160 161/161/161
f 98/98/98 99/99/99 97/97/97
f 161/161/161 97/97/97 162/162/162
f 95/95/95 96/96/96 160/160/160
f 136/136/136 137/137/137 130/130/130
f 87/87/87 135/135/135 86/86/86
f 137/137/137 138/138/138 131/131/131
f 96/96/96 161/161/161 160/160/160
f 120/120/120 126/126/126 127/127/127
f 107/107/107 105/105/105 106/106/106
f 109/109/109 110/110/110 117/117/117
f 124/124/124 125/125/125 118/118/118
f 115/115/115 116/116/116 112/112/112
f 84/84/84 114/114/114 83/83/83
f 114/114/114 115/115/115 113/113/113
f 113/113/113 82/82/82 83/83/83
f 111/111/111 112/112/112 116/116/116
f 112/112/112 113/113/113 115/115/115
f 115/115/115 114/114/114 121/121/121
f 110/110/110 111/111/111 117/117/117
f 122/122/122 123/123/123 116/116/116
f 123/123/123 124/124/124 117/117/117
f 108/108/108 109/109/109 118/118/118
f 116/116/116 117/117/117 111/111/111
f 107/107/107 108/108/108 119/119/119
f 117/117/117 118/118/118 109/109/109
f 127/127/127 133/133/133 134/134/134
f 107/107/107 119/119/119 120/120/120
f 104/104/104 105/105/105 120/120/120
f 105/105/105 107/107/107 120/120/120
f 85/85/85 121/121/121 84/84/84
f 121/121/121 85/85/85 128/128/128
f 117/117/117 116/116/116 123/123/123
f 121/121/121 122/122/122 115/115/115
f 143/143/143 142/142/142 149/149/149
f 118/118/118 117/117/117 124/124/124
f 143/143/143 144/144/144 137/137/137
f 119/119/119 118/118/118 125/125/125
f 131/131/131 132/132/132 125/125/125
f 119/119/119 126/126/126 120/120/120
f 126/126/126 119/119/119 125/125/125
f 134/134/134 140/140/140 141/141/141
f 103/103/103 104/104/104 127/127/127
f 104/104/104 120/120/120 127/127/127
f 123/123/123 122/122/122 129/129/129
f 122/122/122 121/121/121 128/128/128
f 124/124/124 123/123/123 130/130/130
f 128/128/128 129/129/129 122/122/122
f 150/150/150 149/149/149 156/156/156
f 125/125/125 124/124/124 131/131/131
f 126/126/126 125/125/125 132/132/132
f 130/130/130 131/131/131 124/124/124
f 145/145/145 146/146/146 139/139/139
f 126/126/126 133/133/133 127/127/127
f 133/133/133 126/126/126 132/132/132
f 141/141/141 147/147/147 148/148/148
f 102/102/102 103/103/103 134/134/134
f 103/103/103 127/127/127 134/134/134
f 130/130/130 129/129/129 136/136/136
f 129/129/129 128/128/128 135/135/135
f 131/131/131 130/130/130 137/137/137
f 135/135/135 136/136/136 129/129/129
f 93/93/93 158/158/158 92/92/92
f 132/132/132 131/131/131 138/138/138
f 158/158/158 94/94/94 159/159/159
f 133/133/133 132/132/132 139/139/139
f 133/133/133 140/140/140 134/134/134
f 138/138/138 139/139/139 132/132/132
f 140/140/140 133/133/133 139/139/139
f 148/148/148 154/154/154 155/155/155
f 101/101/101 102/102/102 141/141/141
f 102/102/102 134/134/134 141/141/141
f 137/137/137 136/136/136 143/143/143
f 136/136/136 135/135/135 142/142/142
f 138/138/138 137/137/137 144/144/144
f 142/142/142 143/143/143 136/136/136
f 93/93/93 94/94/94 158/158/158
f 139/139/139 138/138/138 145/145/145
f 94/94/94 95/95/95 159/159/159
f 140/140/140 139/139/139 146/146/146
f 159/159/159 95/95/95 160/160/160
f 97/97/97 99/99/99 162/162/162
f 140/140/140 147/147/147 141/141/141
f 147/147/147 140/140/140 146/146/146
f 100/100/100 101/101/101 148/148/148
f 101/101/101 141/141/141 148/148/148
f 149/149/149 89/89/89 156/156/156
f 156/156/156 91/91/91 157/157/157
f 143/143/143 150/150/150 144/144/144
f 150/150/150 143/143/143 149/149/149
f 144/144/144 151/151/151 145/145/145
f 144/144/144 150/150/150 151/151/151
f 145/145/145 152/152/152 146/146/146
f 145/145/145 151/151/151 152/152/152
f 146/146/146 153/153/153 147/147/147
f 153/153/153 146/146/146 152/152/152
f 147/147/147 154/154/154 148/148/148
f 154/154/154 147/147/147 153/153/153
f 99/99/99 100/100/100 155/155/155
f 100/100/100 148/148/148 155/155/155
f 89/89/89 91/91/91 156/156/156
f 92/92/92 157/157/157 91/91/91
f 150/150/150 157/157/157 151/151/151
f 157/157/157 150/150/150 156/156/156
f 151/151/151 158/158/158 152/152/152
f 151/151/151 157/157/157 158/158/158
f 152/152/152 159/159/159 153/153/153
f 152/152/152 158/158/158 159/159/159
f 153/153/153 160/160/160 154/154/154
f 153/153/153 159/159/159 160/160/160
f 161/161/161 96/96/96 97/97/97
f 154/154/154 161/161/161 155/155/155
f 99/99/99 155/155/155 162/162/162
f 155/155/155 161/161/161 162/162/162
