v 0.0000000000e0 0.0000000000e0 1.0000000000e0
v 1.2500000000e-1 0.0000000000e0 1.0000000000e0
v 2.5000000000e-1 0.0000000000e0 1.0000000000e0
v 3.7500000000e-1 0.0000000000e0 1.0000000000e0
v 5.0000000000e-1 0.0000000000e0 1.0000000000e0
v 6.2500000000e-1 0.0000000000e0 1.0000000000e0
v 7.5000000000e-1 0.0000000000e0 1.0000000000e0
v 8.7500000000e-1 0.0000000000e0 1.0000000000e0
v 1.0000000000e0 0.0000000000e0 1.0000000000e0
v 1.0000000000e0 1.2500000000e-1 1.0000000000e0
v 1.0000000000e0 2.5000000000e-1 1.0000000000e0
v 1.0000000000e0 3.7500000000e-1 1.0000000000e0
v 1.0000000000e0 5.0000000000e-1 1.0000000000e0
v 1.0000000000e0 6.2500000000e-1 1.0000000000e0
v 1.0000000000e0 7.5000000000e-1 1.0000000000e0
v 1.0000000000e0 8.7500000000e-1 1.0000000000e0
v 1.0000000000e0 1.0000000000e0 1.0000000000e0
v 8.7500000000e-1 1.0000000000e0 1.0000000000e0
v 7.5000000000e-1 1.0000000000e0 1.0000000000e0
v 6.2500000000e-1 1.0000000000e0 1.0000000000e0
v 5.0000000000e-1 1.0000000000e0 1.0000000000e0
v 3.7500000000e-1 1.0000000000e0 1.0000000000e0
v 2.5000000000e-1 1.0000000000e0 1.0000000000e0
v 1.2500000000e-1 1.0000000000e0 1.0000000000e0
v 0.0000000000e0 1.0000000000e0 1.0000000000e0
v 0.0000000000e0 8.7500000000e-1 1.0000000000e0
v 0.0000000000e0 7.5000000000e-1 1.0000000000e0
v 0.0000000000e0 6.2500000000e-1 1.0000000000e0
v 0.0000000000e0 5.0000000000e-1 1.0000000000e0
v 0.0000000000e0 3.7500000000e-1 1.0000000000e0
v 0.0000000000e0 2.5000000000e-1 1.0000000000e0
v 0.0000000000e0 1.2500000000e-1 1.0000000000e0
v 2.8349364905e-1 6.2500000000e-1 1.0000000000e0
v 3.3250464983e-1 6.8559447102e-1 1.0000000000e0
v 3.8877602644e-1 7.2389557322e-1 1.0000000000e0
v 5.0000000000e-1 7.5000000000e-1 1.0000000000e0
v 6.1122397356e-1 7.2389557322e-1 1.0000000000e0
v 6.6749535017e-1 6.8559447102e-1 1.0000000000e0
v 7.1650635095e-1 6.2500000000e-1 1.0000000000e0
v 7.4447720179e-1 5.5225799275e-1 1.0000000000e0
v 7.4951124098e-1 4.8437500000e-1 1.0000000000e0
v 7.1650635095e-1 3.7500000000e-1 1.0000000000e0
v 6.3828726742e-1 2.9172942678e-1 1.0000000000e0
v 5.7698185162e-1 2.6214753623e-1 1.0000000000e0
v 5.0000000000e-1 2.5000000000e-1 1.0000000000e0
v 4.2301814838e-1 2.6214753623e-1 1.0000000000e0
v 3.6171273258e-1 2.9172942678e-1 1.0000000000e0
v 2.8349364905e-1 3.7500000000e-1 1.0000000000e0
v 2.5048875902e-1 4.8437500000e-1 1.0000000000e0
v 2.5552279821e-1 5.5225799275e-1 1.0000000000e0
v 0.0000000000e0 0.0000000000e0 0.0000000000e0
v 1.2500000000e-1 0.0000000000e0 0.0000000000e0
v 2.5000000000e-1 0.0000000000e0 0.0000000000e0
v 3.7500000000e-1 0.0000000000e0 0.0000000000e0
v 5.0000000000e-1 0.0000000000e0 0.0000000000e0
v 6.2500000000e-1 0.0000000000e0 0.0000000000e0
v 7.5000000000e-1 0.0000000000e0 0.0000000000e0
v 8.7500000000e-1 0.0000000000e0 0.0000000000e0
v 1.0000000000e0 0.0000000000e0 0.0000000000e0
v 1.0000000000e0 0.0000000000e0 1.2500000000e-1
v 1.0000000000e0 0.0000000000e0 2.5000000000e-1
v 1.0000000000e0 0.0000000000e0 3.7500000000e-1
v 1.0000000000e0 0.0000000000e0 5.0000000000e-1
v 1.0000000000e0 0.0000000000e0 6.2500000000e-1
v 1.0000000000e0 0.0000000000e0 7.5000000000e-1
v 1.0000000000e0 0.0000000000e0 8.7500000000e-1
v 1.0000000000e0 0.0000000000e0 1.0000000000e0
v 8.7500000000e-1 0.0000000000e0 1.0000000000e0
v 7.5000000000e-1 0.0000000000e0 1.0000000000e0
v 6.2500000000e-1 0.0000000000e0 1.0000000000e0
v 5.0000000000e-1 0.0000000000e0 1.0000000000e0
v 3.7500000000e-1 0.0000000000e0 1.0000000000e0
v 2.5000000000e-1 0.0000000000e0 1.0000000000e0
v 1.2500000000e-1 0.0000000000e0 1.0000000000e0
v 0.0000000000e0 0.0000000000e0 1.0000000000e0
v 0.0000000000e0 0.0000000000e0 8.7500000000e-1
v 0.0000000000e0 0.0000000000e0 7.5000000000e-1
v 0.0000000000e0 0.0000000000e0 6.2500000000e-1
v 0.0000000000e0 0.0000000000e0 5.0000000000e-1
v 0.0000000000e0 0.0000000000e0 3.7500000000e-1
v 0.0000000000e0 0.0000000000e0 2.5000000000e-1
v 0.0000000000e0 0.0000000000e0 1.2500000000e-1
v 1.0000000000e0 0.0000000000e0 0.0000000000e0
v 1.0000000000e0 1.2500000000e-1 0.0000000000e0
v 1.0000000000e0 2.5000000000e-1 0.0000000000e0
v 1.0000000000e0 3.7500000000e-1 0.0000000000e0
v 1.0000000000e0 5.0000000000e-1 0.0000000000e0
v 1.0000000000e0 6.2500000000e-1 0.0000000000e0
v 1.0000000000e0 7.5000000000e-1 0.0000000000e0
v 1.0000000000e0 8.7500000000e-1 0.0000000000e0
v 1.0000000000e0 1.0000000000e0 0.0000000000e0
v 1.0000000000e0 1.0000000000e0 1.2500000000e-1
v 1.0000000000e0 1.0000000000e0 2.5000000000e-1
v 1.0000000000e0 1.0000000000e0 3.7500000000e-1
v 1.0000000000e0 1.0000000000e0 5.0000000000e-1
v 1.0000000000e0 1.0000000000e0 6.2500000000e-1
v 1.0000000000e0 1.0000000000e0 7.5000000000e-1
v 1.0000000000e0 1.0000000000e0 8.7500000000e-1
v 1.0000000000e0 1.0000000000e0 1.0000000000e0
v 1.0000000000e0 8.7500000000e-1 1.0000000000e0
v 1.0000000000e0 7.5000000000e-1 1.0000000000e0
v 1.0000000000e0 6.2500000000e-1 1.0000000000e0
v 1.0000000000e0 5.0000000000e-1 1.0000000000e0
v 1.0000000000e0 3.7500000000e-1 1.0000000000e0
v 1.0000000000e0 2.5000000000e-1 1.0000000000e0
v 1.0000000000e0 1.2500000000e-1 1.0000000000e0
v 1.0000000000e0 0.0000000000e0 1.0000000000e0
v 1.0000000000e0 0.0000000000e0 8.7500000000e-1
v 1.0000000000e0 0.0000000000e0 7.5000000000e-1
v 1.0000000000e0 0.0000000000e0 6.2500000000e-1
v 1.0000000000e0 0.0000000000e0 5.0000000000e-1
v 1.0000000000e0 0.0000000000e0 3.7500000000e-1
v 1.0000000000e0 0.0000000000e0 2.5000000000e-1
v 1.0000000000e0 0.0000000000e0 1.2500000000e-1
v 1.0000000000e0 1.0000000000e0 0.0000000000e0
v 1.0000000000e0 1.0000000000e0 1.2500000000e-1
v 1.0000000000e0 1.0000000000e0 2.5000000000e-1
v 1.0000000000e0 1.0000000000e0 3.7500000000e-1
v 1.0000000000e0 1.0000000000e0 5.0000000000e-1
v 1.0000000000e0 1.0000000000e0 6.2500000000e-1
v 1.0000000000e0 1.0000000000e0 7.5000000000e-1
v 1.0000000000e0 1.0000000000e0 8.7500000000e-1
v 1.0000000000e0 1.0000000000e0 1.0000000000e0
v 8.7500000000e-1 1.0000000000e0 1.0000000000e0
v 7.5000000000e-1 1.0000000000e0 1.0000000000e0
v 6.2500000000e-1 1.0000000000e0 1.0000000000e0
v 5.0000000000e-1 1.0000000000e0 1.0000000000e0
v 3.7500000000e-1 1.0000000000e0 1.0000000000e0
v 2.5000000000e-1 1.0000000000e0 1.0000000000e0
v 1.2500000000e-1 1.0000000000e0 1.0000000000e0
v 0.0000000000e0 1.0000000000e0 1.0000000000e0
v 0.0000000000e0 1.0000000000e0 8.7500000000e-1
v 0.0000000000e0 1.0000000000e0 7.5000000000e-1
v 0.0000000000e0 1.0000000000e0 6.2500000000e-1
v 0.0000000000e0 1.0000000000e0 5.0000000000e-1
v 0.0000000000e0 1.0000000000e0 3.7500000000e-1
v 0.0000000000e0 1.0000000000e0 2.5000000000e-1
v 0.0000000000e0 1.0000000000e0 1.2500000000e-1
v 0.0000000000e0 1.0000000000e0 0.0000000000e0
v 1.2500000000e-1 1.0000000000e0 0.0000000000e0
v 2.5000000000e-1 1.0000000000e0 0.0000000000e0
v 3.7500000000e-1 1.0000000000e0 0.0000000000e0
v 5.0000000000e-1 1.0000000000e0 0.0000000000e0
v 6.2500000000e-1 1.0000000000e0 0.0000000000e0
v 7.5000000000e-1 1.0000000000e0 0.0000000000e0
v 8.7500000000e-1 1.0000000000e0 0.0000000000e0
v 0.0000000000e0 0.0000000000e0 0.0000000000e0
v 1.2500000000e-1 0.0000000000e0 0.0000000000e0
v 2.5000000000e-1 0.0000000000e0 0.0000000000e0
v 3.7500000000e-1 0.0000000000e0 0.0000000000e0
v 5.0000000000e-1 0.0000000000e0 0.0000000000e0
v 6.2500000000e-1 0.0000000000e0 0.0000000000e0
v 7.5000000000e-1 0.0000000000e0 0.0000000000e0
v 8.7500000000e-1 0.0000000000e0 0.0000000000e0
v 1.0000000000e0 0.0000000000e0 0.0000000000e0
v 1.0000000000e0 1.2500000000e-1 0.0000000000e0
v 1.0000000000e0 2.5000000000e-1 0.0000000000e0
v 1.0000000000e0 3.7500000000e-1 0.0000000000e0
v 1.0000000000e0 5.0000000000e-1 0.0000000000e0
v 1.0000000000e0 6.2500000000e-1 0.0000000000e0
v 1.0000000000e0 7.5000000000e-1 0.0000000000e0
v 1.0000000000e0 8.7500000000e-1 0.0000000000e0
v 1.0000000000e0 1.0000000000e0 0.0000000000e0
v 8.7500000000e-1 1.0000000000e0 0.0000000000e0
v 7.5000000000e-1 1.0000000000e0 0.0000000000e0
v 6.2500000000e-1 1.0000000000e0 0.0000000000e0
v 5.0000000000e-1 1.0000000000e0 0.0000000000e0
v 3.7500000000e-1 1.0000000000e0 0.0000000000e0
v 2.5000000000e-1 1.0000000000e0 0.0000000000e0
v 1.2500000000e-1 1.0000000000e0 0.0000000000e0
v 0.0000000000e0 1.0000000000e0 0.0000000000e0
v 0.0000000000e0 8.7500000000e-1 0.0000000000e0
v 0.0000000000e0 7.5000000000e-1 0.0000000000e0
v 0.0000000000e0 6.2500000000e-1 0.0000000000e0
v 0.0000000000e0 5.0000000000e-1 0.0000000000e0
v 0.0000000000e0 3.7500000000e-1 0.0000000000e0
v 0.0000000000e0 2.5000000000e-1 0.0000000000e0
v 0.0000000000e0 1.2500000000e-1 0.0000000000e0
v 2.8349364905e-1 6.2500000000e-1 0.0000000000e0
v 3.3250464983e-1 6.8559447102e-1 0.0000000000e0
v 3.8877602644e-1 7.2389557322e-1 0.0000000000e0
v 5.0000000000e-1 7.5000000000e-1 0.0000000000e0
v 6.1122397356e-1 7.2389557322e-1 0.0000000000e0
v 6.6749535017e-1 6.8559447102e-1 0.0000000000e0
v 7.1650635095e-1 6.2500000000e-1 0.0000000000e0
v 7.4447720179e-1 5.5225799275e-1 0.0000000000e0
v 7.4951124098e-1 4.8437500000e-1 0.0000000000e0
v 7.1650635095e-1 3.7500000000e-1 0.0000000000e0
v 6.3828726742e-1 2.9172942678e-1 0.0000000000e0
v 5.7698185162e-1 2.6214753623e-1 0.0000000000e0
v 5.0000000000e-1 2.5000000000e-1 0.0000000000e0
v 4.2301814838e-1 2.6214753623e-1 0.0000000000e0
v 3.6171273258e-1 2.9172942678e-1 0.0000000000e0
v 2.8349364905e-1 3.7500000000e-1 0.0000000000e0
v 2.5048875902e-1 4.8437500000e-1 0.0000000000e0
v 2.5552279821e-1 5.5225799275e-1 0.0000000000e0
v 0.0000000000e0 1.0000000000e0 0.0000000000e0
v 0.0000000000e0 1.0000000000e0 1.2500000000e-1
v 0.0000000000e0 1.0000000000e0 2.5000000000e-1
v 0.0000000000e0 1.0000000000e0 3.7500000000e-1
v 0.0000000000e0 1.0000000000e0 5.0000000000e-1
v 0.0000000000e0 1.0000000000e0 6.2500000000e-1
v 0.0000000000e0 1.0000000000e0 7.5000000000e-1
v 0.0000000000e0 1.0000000000e0 8.7500000000e-1
v 0.0000000000e0 1.0000000000e0 1.0000000000e0
v 0.0000000000e0 8.7500000000e-1 1.0000000000e0
v 0.0000000000e0 7.5000000000e-1 1.0000000000e0
v 0.0000000000e0 6.2500000000e-1 1.0000000000e0
v 0.0000000000e0 5.0000000000e-1 1.0000000000e0
v 0.0000000000e0 3.7500000000e-1 1.0000000000e0
v 0.0000000000e0 2.5000000000e-1 1.0000000000e0
v 0.0000000000e0 1.2500000000e-1 1.0000000000e0
v 0.0000000000e0 0.0000000000e0 1.0000000000e0
v 0.0000000000e0 0.0000000000e0 8.7500000000e-1
v 0.0000000000e0 0.0000000000e0 7.5000000000e-1
v 0.0000000000e0 0.0000000000e0 6.2500000000e-1
v 0.0000000000e0 0.0000000000e0 5.0000000000e-1
v 0.0000000000e0 0.0000000000e0 3.7500000000e-1
v 0.0000000000e0 0.0000000000e0 2.5000000000e-1
v 0.0000000000e0 0.0000000000e0 1.2500000000e-1
v 0.0000000000e0 0.0000000000e0 0.0000000000e0
v 0.0000000000e0 1.2500000000e-1 0.0000000000e0
v 0.0000000000e0 2.5000000000e-1 0.0000000000e0
v 0.0000000000e0 3.7500000000e-1 0.0000000000e0
v 0.0000000000e0 5.0000000000e-1 0.0000000000e0
v 0.0000000000e0 6.2500000000e-1 0.0000000000e0
v 0.0000000000e0 7.5000000000e-1 0.0000000000e0
v 0.0000000000e0 8.7500000000e-1 0.0000000000e0
v 2.8349364905e-1 6.2500000000e-1 1.0000000000e0
v 3.3250464983e-1 6.8559447102e-1 1.0000000000e0
v 3.8877602644e-1 7.2389557322e-1 1.0000000000e0
v 5.0000000000e-1 7.5000000000e-1 1.0000000000e0
v 6.1122397356e-1 7.2389557322e-1 1.0000000000e0
v 6.6749535017e-1 6.8559447102e-1 1.0000000000e0
v 7.1650635095e-1 6.2500000000e-1 1.0000000000e0
v 7.1650635095e-1 6.2500000000e-1 8.7500000000e-1
v 7.1650635095e-1 6.2500000000e-1 7.5000000000e-1
v 7.1650635095e-1 6.2500000000e-1 6.2500000000e-1
v 7.1650635095e-1 6.2500000000e-1 5.0000000000e-1
v 7.1650635095e-1 6.2500000000e-1 3.7500000000e-1
v 7.1650635095e-1 6.2500000000e-1 2.5000000000e-1
v 7.1650635095e-1 6.2500000000e-1 1.2500000000e-1
v 7.1650635095e-1 6.2500000000e-1 0.0000000000e0
v 6.6749535017e-1 6.8559447102e-1 0.0000000000e0
v 6.1122397356e-1 7.2389557322e-1 0.0000000000e0
v 5.0000000000e-1 7.5000000000e-1 0.0000000000e0
v 3.8877602644e-1 7.2389557322e-1 0.0000000000e0
v 3.3250464983e-1 6.8559447102e-1 0.0000000000e0
v 2.8349364905e-1 6.2500000000e-1 0.0000000000e0
v 2.8349364905e-1 6.2500000000e-1 1.2500000000e-1
v 2.8349364905e-1 6.2500000000e-1 2.5000000000e-1
v 2.8349364905e-1 6.2500000000e-1 3.7500000000e-1
v 2.8349364905e-1 6.2500000000e-1 5.0000000000e-1
v 2.8349364905e-1 6.2500000000e-1 6.2500000000e-1
v 2.8349364905e-1 6.2500000000e-1 7.5000000000e-1
v 2.8349364905e-1 6.2500000000e-1 8.7500000000e-1
v 6.2500000000e-1 7.1650635095e-1 0.0000000000e0
v 6.2500000000e-1 7.1650635095e-1 1.0000000000e0
v 3.7500000000e-1 7.1650635095e-1 0.0000000000e0
v 3.7500000000e-1 7.1650635095e-1 1.0000000000e0
v 2.8349364905e-1 6.2500000000e-1 1.0000000000e0
v 2.8349364905e-1 6.2500000000e-1 8.7500000000e-1
v 2.8349364905e-1 6.2500000000e-1 7.5000000000e-1
v 2.8349364905e-1 6.2500000000e-1 6.2500000000e-1
v 2.8349364905e-1 6.2500000000e-1 5.0000000000e-1
v 2.8349364905e-1 6.2500000000e-1 3.7500000000e-1
v 2.8349364905e-1 6.2500000000e-1 2.5000000000e-1
v 2.8349364905e-1 6.2500000000e-1 1.2500000000e-1
v 2.8349364905e-1 6.2500000000e-1 0.0000000000e0
v 2.5552279821e-1 5.5225799275e-1 0.0000000000e0
v 2.5048875902e-1 4.8437500000e-1 0.0000000000e0
v 2.8349364905e-1 3.7500000000e-1 0.0000000000e0
v 3.6171273258e-1 2.9172942678e-1 0.0000000000e0
v 4.2301814838e-1 2.6214753623e-1 0.0000000000e0
v 5.0000000000e-1 2.5000000000e-1 0.0000000000e0
v 5.0000000000e-1 2.5000000000e-1 1.2500000000e-1
v 5.0000000000e-1 2.5000000000e-1 2.5000000000e-1
v 5.0000000000e-1 2.5000000000e-1 3.7500000000e-1
v 5.0000000000e-1 2.5000000000e-1 5.0000000000e-1
v 5.0000000000e-1 2.5000000000e-1 6.2500000000e-1
v 5.0000000000e-1 2.5000000000e-1 7.5000000000e-1
v 5.0000000000e-1 2.5000000000e-1 8.7500000000e-1
v 5.0000000000e-1 2.5000000000e-1 1.0000000000e0
v 4.2301814838e-1 2.6214753623e-1 1.0000000000e0
v 3.6171273258e-1 2.9172942678e-1 1.0000000000e0
v 2.8349364905e-1 3.7500000000e-1 1.0000000000e0
v 2.5048875902e-1 4.8437500000e-1 1.0000000000e0
v 2.5552279821e-1 5.5225799275e-1 1.0000000000e0
v 2.5000000000e-1 5.0000000000e-1 0.0000000000e0
v 2.5000000000e-1 5.0000000000e-1 1.0000000000e0
v 3.7500000000e-1 2.8349364905e-1 0.0000000000e0
v 3.7500000000e-1 2.8349364905e-1 1.0000000000e0
v 5.0000000000e-1 2.5000000000e-1 1.0000000000e0
v 5.0000000000e-1 2.5000000000e-1 8.7500000000e-1
v 5.0000000000e-1 2.5000000000e-1 7.5000000000e-1
v 5.0000000000e-1 2.5000000000e-1 6.2500000000e-1
v 5.0000000000e-1 2.5000000000e-1 5.0000000000e-1
v 5.0000000000e-1 2.5000000000e-1 3.7500000000e-1
v 5.0000000000e-1 2.5000000000e-1 2.5000000000e-1
v 5.0000000000e-1 2.5000000000e-1 1.2500000000e-1
v 5.0000000000e-1 2.5000000000e-1 0.0000000000e0
v 5.7698185162e-1 2.6214753623e-1 0.0000000000e0
v 6.3828726742e-1 2.9172942678e-1 0.0000000000e0
v 7.1650635095e-1 3.7500000000e-1 0.0000000000e0
v 7.4951124098e-1 4.8437500000e-1 0.0000000000e0
v 7.4447720179e-1 5.5225799275e-1 0.0000000000e0
v 7.1650635095e-1 6.2500000000e-1 0.0000000000e0
v 7.1650635095e-1 6.2500000000e-1 1.2500000000e-1
v 7.1650635095e-1 6.2500000000e-1 2.5000000000e-1
v 7.1650635095e-1 6.2500000000e-1 3.7500000000e-1
v 7.1650635095e-1 6.2500000000e-1 5.0000000000e-1
v 7.1650635095e-1 6.2500000000e-1 6.2500000000e-1
v 7.1650635095e-1 6.2500000000e-1 7.5000000000e-1
v 7.1650635095e-1 6.2500000000e-1 8.7500000000e-1
v 7.1650635095e-1 6.2500000000e-1 1.0000000000e0
v 7.4447720179e-1 5.5225799275e-1 1.0000000000e0
v 7.4951124098e-1 4.8437500000e-1 1.0000000000e0
v 7.1650635095e-1 3.7500000000e-1 1.0000000000e0
v 6.3828726742e-1 2.9172942678e-1 1.0000000000e0
v 5.7698185162e-1 2.6214753623e-1 1.0000000000e0
v 6.2500000000e-1 2.8349364905e-1 0.0000000000e0
v 6.2500000000e-1 2.8349364905e-1 1.0000000000e0
v 7.5000000000e-1 5.0000000000e-1 0.0000000000e0
v 7.5000000000e-1 5.0000000000e-1 1.0000000000e0
vt 0.0000000000e0 0.0000000000e0
vt 1.2500000000e-1 0.0000000000e0
vt 2.5000000000e-1 0.0000000000e0
vt 3.7500000000e-1 0.0000000000e0
vt 5.0000000000e-1 0.0000000000e0
vt 6.2500000000e-1 0.0000000000e0
vt 7.5000000000e-1 0.0000000000e0
vt 8.7500000000e-1 0.0000000000e0
vt 1.0000000000e0 0.0000000000e0
vt 1.0000000000e0 1.2500000000e-1
vt 1.0000000000e0 2.5000000000e-1
vt 1.0000000000e0 3.7500000000e-1
vt 1.0000000000e0 5.0000000000e-1
vt 1.0000000000e0 6.2500000000e-1
vt 1.0000000000e0 7.5000000000e-1
vt 1.0000000000e0 8.7500000000e-1
vt 1.0000000000e0 1.0000000000e0
vt 8.7500000000e-1 1.0000000000e0
vt 7.5000000000e-1 1.0000000000e0
vt 6.2500000000e-1 1.0000000000e0
vt 5.0000000000e-1 1.0000000000e0
vt 3.7500000000e-1 1.0000000000e0
vt 2.5000000000e-1 1.0000000000e0
vt 1.2500000000e-1 1.0000000000e0
vt 0.0000000000e0 1.0000000000e0
vt 0.0000000000e0 8.7500000000e-1
vt 0.0000000000e0 7.5000000000e-1
vt 0.0000000000e0 6.2500000000e-1
vt 0.0000000000e0 5.0000000000e-1
vt 0.0000000000e0 3.7500000000e-1
vt 0.0000000000e0 2.5000000000e-1
vt 0.0000000000e0 1.2500000000e-1
vt 2.8349364905e-1 6.2500000000e-1
vt 3.3250464983e-1 6.8559447102e-1
vt 3.8877602644e-1 7.2389557322e-1
vt 5.0000000000e-1 7.5000000000e-1
vt 6.1122397356e-1 7.2389557322e-1
vt 6.6749535017e-1 6.8559447102e-1
vt 7.1650635095e-1 6.2500000000e-1
vt 7.4447720179e-1 5.5225799275e-1
vt 7.4951124098e-1 4.8437500000e-1
vt 7.1650635095e-1 3.7500000000e-1
vt 6.3828726742e-1 2.9172942678e-1
vt 5.7698185162e-1 2.6214753623e-1
vt 5.0000000000e-1 2.5000000000e-1
vt 4.2301814838e-1 2.6214753623e-1
vt 3.6171273258e-1 2.9172942678e-1
vt 2.8349364905e-1 3.7500000000e-1
vt 2.5048875902e-1 4.8437500000e-1
vt 2.5552279821e-1 5.5225799275e-1
vt 0.0000000000e0 0.0000000000e0
vt 1.2500000000e-1 0.0000000000e0
vt 2.5000000000e-1 0.0000000000e0
vt 3.7500000000e-1 0.0000000000e0
vt 5.0000000000e-1 0.0000000000e0
vt 6.2500000000e-1 0.0000000000e0
vt 7.5000000000e-1 0.0000000000e0
vt 8.7500000000e-1 0.0000000000e0
vt 1.0000000000e0 0.0000000000e0
vt 1.0000000000e0 1.2500000000e-1
vt 1.0000000000e0 2.5000000000e-1
vt 1.0000000000e0 3.7500000000e-1
vt 1.0000000000e0 5.0000000000e-1
vt 1.0000000000e0 6.2500000000e-1
vt 1.0000000000e0 7.5000000000e-1
vt 1.0000000000e0 8.7500000000e-1
vt 1.0000000000e0 1.0000000000e0
vt 8.7500000000e-1 1.0000000000e0
vt 7.5000000000e-1 1.0000000000e0
vt 6.2500000000e-1 1.0000000000e0
vt 5.0000000000e-1 1.0000000000e0
vt 3.7500000000e-1 1.0000000000e0
vt 2.5000000000e-1 1.0000000000e0
vt 1.2500000000e-1 1.0000000000e0
vt 0.0000000000e0 1.0000000000e0
vt 0.0000000000e0 8.7500000000e-1
vt 0.0000000000e0 7.5000000000e-1
vt 0.0000000000e0 6.2500000000e-1
vt 0.0000000000e0 5.0000000000e-1
vt 0.0000000000e0 3.7500000000e-1
vt 0.0000000000e0 2.5000000000e-1
vt 0.0000000000e0 1.2500000000e-1
vt 0.0000000000e0 0.0000000000e0
vt 1.2500000000e-1 0.0000000000e0
vt 2.5000000000e-1 0.0000000000e0
vt 3.7500000000e-1 0.0000000000e0
vt 5.0000000000e-1 0.0000000000e0
vt 6.2500000000e-1 0.0000000000e0
vt 7.5000000000e-1 0.0000000000e0
vt 8.7500000000e-1 0.0000000000e0
vt 1.0000000000e0 0.0000000000e0
vt 1.0000000000e0 1.2500000000e-1
vt 1.0000000000e0 2.5000000000e-1
vt 1.0000000000e0 3.7500000000e-1
vt 1.0000000000e0 5.0000000000e-1
vt 1.0000000000e0 6.2500000000e-1
vt 1.0000000000e0 7.5000000000e-1
vt 1.0000000000e0 8.7500000000e-1
vt 1.0000000000e0 1.0000000000e0
vt 8.7500000000e-1 1.0000000000e0
vt 7.5000000000e-1 1.0000000000e0
vt 6.2500000000e-1 1.0000000000e0
vt 5.0000000000e-1 1.0000000000e0
vt 3.7500000000e-1 1.0000000000e0
vt 2.5000000000e-1 1.0000000000e0
vt 1.2500000000e-1 1.0000000000e0
vt 0.0000000000e0 1.0000000000e0
vt 0.0000000000e0 8.7500000000e-1
vt 0.0000000000e0 7.5000000000e-1
vt 0.0000000000e0 6.2500000000e-1
vt 0.0000000000e0 5.0000000000e-1
vt 0.0000000000e0 3.7500000000e-1
vt 0.0000000000e0 2.5000000000e-1
vt 0.0000000000e0 1.2500000000e-1
vt 1.0000000000e0 0.0000000000e0
vt 1.0000000000e0 1.2500000000e-1
vt 1.0000000000e0 2.5000000000e-1
vt 1.0000000000e0 3.7500000000e-1
vt 1.0000000000e0 5.0000000000e-1
vt 1.0000000000e0 6.2500000000e-1
vt 1.0000000000e0 7.5000000000e-1
vt 1.0000000000e0 8.7500000000e-1
vt 1.0000000000e0 1.0000000000e0
vt 8.7500000000e-1 1.0000000000e0
vt 7.5000000000e-1 1.0000000000e0
vt 6.2500000000e-1 1.0000000000e0
vt 5.0000000000e-1 1.0000000000e0
vt 3.7500000000e-1 1.0000000000e0
vt 2.5000000000e-1 1.0000000000e0
vt 1.2500000000e-1 1.0000000000e0
vt 0.0000000000e0 1.0000000000e0
vt 0.0000000000e0 8.7500000000e-1
vt 0.0000000000e0 7.5000000000e-1
vt 0.0000000000e0 6.2500000000e-1
vt 0.0000000000e0 5.0000000000e-1
vt 0.0000000000e0 3.7500000000e-1
vt 0.0000000000e0 2.5000000000e-1
vt 0.0000000000e0 1.2500000000e-1
vt 0.0000000000e0 0.0000000000e0
vt 1.2500000000e-1 0.0000000000e0
vt 2.5000000000e-1 0.0000000000e0
vt 3.7500000000e-1 0.0000000000e0
vt 5.0000000000e-1 0.0000000000e0
vt 6.2500000000e-1 0.0000000000e0
vt 7.5000000000e-1 0.0000000000e0
vt 8.7500000000e-1 0.0000000000e0
vt 0.0000000000e0 0.0000000000e0
vt 1.2500000000e-1 0.0000000000e0
vt 2.5000000000e-1 0.0000000000e0
vt 3.7500000000e-1 0.0000000000e0
vt 5.0000000000e-1 0.0000000000e0
vt 6.2500000000e-1 0.0000000000e0
vt 7.5000000000e-1 0.0000000000e0
vt 8.7500000000e-1 0.0000000000e0
vt 1.0000000000e0 0.0000000000e0
vt 1.0000000000e0 1.2500000000e-1
vt 1.0000000000e0 2.5000000000e-1
vt 1.0000000000e0 3.7500000000e-1
vt 1.0000000000e0 5.0000000000e-1
vt 1.0000000000e0 6.2500000000e-1
vt 1.0000000000e0 7.5000000000e-1
vt 1.0000000000e0 8.7500000000e-1
vt 1.0000000000e0 1.0000000000e0
vt 8.7500000000e-1 1.0000000000e0
vt 7.5000000000e-1 1.0000000000e0
vt 6.2500000000e-1 1.0000000000e0
vt 5.0000000000e-1 1.0000000000e0
vt 3.7500000000e-1 1.0000000000e0
vt 2.5000000000e-1 1.0000000000e0
vt 1.2500000000e-1 1.0000000000e0
vt 0.0000000000e0 1.0000000000e0
vt 0.0000000000e0 8.7500000000e-1
vt 0.0000000000e0 7.5000000000e-1
vt 0.0000000000e0 6.2500000000e-1
vt 0.0000000000e0 5.0000000000e-1
vt 0.0000000000e0 3.7500000000e-1
vt 0.0000000000e0 2.5000000000e-1
vt 0.0000000000e0 1.2500000000e-1
vt 2.8349364905e-1 6.2500000000e-1
vt 3.3250464983e-1 6.8559447102e-1
vt 3.8877602644e-1 7.2389557322e-1
vt 5.0000000000e-1 7.5000000000e-1
vt 6.1122397356e-1 7.2389557322e-1
vt 6.6749535017e-1 6.8559447102e-1
vt 7.1650635095e-1 6.2500000000e-1
vt 7.4447720179e-1 5.5225799275e-1
vt 7.4951124098e-1 4.8437500000e-1
vt 7.1650635095e-1 3.7500000000e-1
vt 6.3828726742e-1 2.9172942678e-1
vt 5.7698185162e-1 2.6214753623e-1
vt 5.0000000000e-1 2.5000000000e-1
vt 4.2301814838e-1 2.6214753623e-1
vt 3.6171273258e-1 2.9172942678e-1
vt 2.8349364905e-1 3.7500000000e-1
vt 2.5048875902e-1 4.8437500000e-1
vt 2.5552279821e-1 5.5225799275e-1
vt 1.0000000000e0 0.0000000000e0
vt 1.0000000000e0 1.2500000000e-1
vt 1.0000000000e0 2.5000000000e-1
vt 1.0000000000e0 3.7500000000e-1
vt 1.0000000000e0 5.0000000000e-1
vt 1.0000000000e0 6.2500000000e-1
vt 1.0000000000e0 7.5000000000e-1
vt 1.0000000000e0 8.7500000000e-1
vt 1.0000000000e0 1.0000000000e0
vt 8.7500000000e-1 1.0000000000e0
vt 7.5000000000e-1 1.0000000000e0
vt 6.2500000000e-1 1.0000000000e0
vt 5.0000000000e-1 1.0000000000e0
vt 3.7500000000e-1 1.0000000000e0
vt 2.5000000000e-1 1.0000000000e0
vt 1.2500000000e-1 1.0000000000e0
vt 0.0000000000e0 1.0000000000e0
vt 0.0000000000e0 8.7500000000e-1
vt 0.0000000000e0 7.5000000000e-1
vt 0.0000000000e0 6.2500000000e-1
vt 0.0000000000e0 5.0000000000e-1
vt 0.0000000000e0 3.7500000000e-1
vt 0.0000000000e0 2.5000000000e-1
vt 0.0000000000e0 1.2500000000e-1
vt 0.0000000000e0 0.0000000000e0
vt 1.2500000000e-1 0.0000000000e0
vt 2.5000000000e-1 0.0000000000e0
vt 3.7500000000e-1 0.0000000000e0
vt 5.0000000000e-1 0.0000000000e0
vt 6.2500000000e-1 0.0000000000e0
vt 7.5000000000e-1 0.0000000000e0
vt 8.7500000000e-1 0.0000000000e0
vt 2.6179938780e0 1.5000000000e0
vt 2.3049800602e0 1.5000000000e0
vt 2.0318543406e0 1.5000000000e0
vt 1.5707963268e0 1.5000000000e0
vt 1.1097383130e0 1.5000000000e0
vt 8.3661259334e-1 1.5000000000e0
vt 5.2359877560e-1 1.5000000000e0
vt 5.2359877560e-1 1.3750000000e0
vt 5.2359877560e-1 1.2500000000e0
vt 5.2359877560e-1 1.1250000000e0
vt 5.2359877560e-1 1.0000000000e0
vt 5.2359877560e-1 8.7500000000e-1
vt 5.2359877560e-1 7.5000000000e-1
vt 5.2359877560e-1 6.2500000000e-1
vt 5.2359877560e-1 5.0000000000e-1
vt 8.3661259334e-1 5.0000000000e-1
vt 1.1097383130e0 5.0000000000e-1
vt 1.5707963268e0 5.0000000000e-1
vt 2.0318543406e0 5.0000000000e-1
vt 2.3049800602e0 5.0000000000e-1
vt 2.6179938780e0 5.0000000000e-1
vt 2.6179938780e0 6.2500000000e-1
vt 2.6179938780e0 7.5000000000e-1
vt 2.6179938780e0 8.7500000000e-1
vt 2.6179938780e0 1.0000000000e0
vt 2.6179938780e0 1.1250000000e0
vt 2.6179938780e0 1.2500000000e0
vt 2.6179938780e0 1.3750000000e0
vt 1.0471975512e0 5.0000000000e-1
vt 1.0471975512e0 1.5000000000e0
vt 2.0943951024e0 5.0000000000e-1
vt 2.0943951024e0 1.5000000000e0
vt 2.6179938780e0 1.5000000000e0
vt 2.6179938780e0 1.3750000000e0
vt 2.6179938780e0 1.2500000000e0
vt 2.6179938780e0 1.1250000000e0
vt 2.6179938780e0 1.0000000000e0
vt 2.6179938780e0 8.7500000000e-1
vt 2.6179938780e0 7.5000000000e-1
vt 2.6179938780e0 6.2500000000e-1
vt 2.6179938780e0 5.0000000000e-1
vt 2.9310076957e0 5.0000000000e-1
vt 3.2041334154e0 5.0000000000e-1
vt 3.6651914292e0 5.0000000000e-1
vt 4.1262494430e0 5.0000000000e-1
vt 4.3993751626e0 5.0000000000e-1
vt 4.7123889804e0 5.0000000000e-1
vt 4.7123889804e0 6.2500000000e-1
vt 4.7123889804e0 7.5000000000e-1
vt 4.7123889804e0 8.7500000000e-1
vt 4.7123889804e0 1.0000000000e0
vt 4.7123889804e0 1.1250000000e0
vt 4.7123889804e0 1.2500000000e0
vt 4.7123889804e0 1.3750000000e0
vt 4.7123889804e0 1.5000000000e0
vt 4.3993751626e0 1.5000000000e0
vt 4.1262494430e0 1.5000000000e0
vt 3.6651914292e0 1.5000000000e0
vt 3.2041334154e0 1.5000000000e0
vt 2.9310076957e0 1.5000000000e0
vt 3.1415926536e0 5.0000000000e-1
vt 3.1415926536e0 1.5000000000e0
vt 4.1887902048e0 5.0000000000e-1
vt 4.1887902048e0 1.5000000000e0
vt 4.7123889804e0 1.5000000000e0
vt 4.7123889804e0 1.3750000000e0
vt 4.7123889804e0 1.2500000000e0
vt 4.7123889804e0 1.1250000000e0
vt 4.7123889804e0 1.0000000000e0
vt 4.7123889804e0 8.7500000000e-1
vt 4.7123889804e0 7.5000000000e-1
vt 4.7123889804e0 6.2500000000e-1
vt 4.7123889804e0 5.0000000000e-1
vt 5.0254027981e0 5.0000000000e-1
vt 5.2985285178e0 5.0000000000e-1
vt 5.7595865316e0 5.0000000000e-1
vt 6.2206445454e0 5.0000000000e-1
vt 6.4937702650e0 5.0000000000e-1
vt 6.8067840828e0 5.0000000000e-1
vt 6.8067840828e0 6.2500000000e-1
vt 6.8067840828e0 7.5000000000e-1
vt 6.8067840828e0 8.7500000000e-1
vt 6.8067840828e0 1.0000000000e0
vt 6.8067840828e0 1.1250000000e0
vt 6.8067840828e0 1.2500000000e0
vt 6.8067840828e0 1.3750000000e0
vt 6.8067840828e0 1.5000000000e0
vt 6.4937702650e0 1.5000000000e0
vt 6.2206445454e0 1.5000000000e0
vt 5.7595865316e0 1.5000000000e0
vt 5.2985285178e0 1.5000000000e0
vt 5.0254027981e0 1.5000000000e0
vt 5.2359877560e0 5.0000000000e-1
vt 5.2359877560e0 1.5000000000e0
vt 6.2831853072e0 5.0000000000e-1
vt 6.2831853072e0 1.5000000000e0
vn 0.0000000000e0 0.0000000000e0 1.0000000000e0
vn 0.0000000000e0 0.0000000000e0 1.0000000000e0
vn 0.0000000000e0 0.0000000000e0 1.0000000000e0
vn 0.0000000000e0 0.0000000000e0 1.0000000000e0
vn 0.0000000000e0 0.0000000000e0 1.0000000000e0
vn 0.0000000000e0 0.0000000000e0 1.0000000000e0
vn 0.0000000000e0 0.0000000000e0 1.0000000000e0
vn 0.0000000000e0 0.0000000000e0 1.0000000000e0
vn 0.0000000000e0 0.0000000000e0 1.0000000000e0
vn 0.0000000000e0 0.0000000000e0 1.0000000000e0
vn 0.0000000000e0 0.0000000000e0 1.0000000000e0
vn 0.0000000000e0 0.0000000000e0 1.0000000000e0
vn 0.0000000000e0 0.0000000000e0 1.0000000000e0
vn 0.0000000000e0 0.0000000000e0 1.0000000000e0
vn 0.0000000000e0 0.0000000000e0 1.0000000000e0
vn 0.0000000000e0 0.0000000000e0 1.0000000000e0
vn 0.0000000000e0 0.0000000000e0 1.0000000000e0
vn 0.0000000000e0 0.0000000000e0 1.0000000000e0
vn 0.0000000000e0 0.0000000000e0 1.0000000000e0
vn 0.0000000000e0 0.0000000000e0 1.0000000000e0
vn 0.0000000000e0 0.0000000000e0 1.0000000000e0
vn 0.0000000000e0 0.0000000000e0 1.0000000000e0
vn 0.0000000000e0 0.0000000000e0 1.0000000000e0
vn 0.0000000000e0 0.0000000000e0 1.0000000000e0
vn 0.0000000000e0 0.0000000000e0 1.0000000000e0
vn 0.0000000000e0 0.0000000000e0 1.0000000000e0
vn 0.0000000000e0 0.0000000000e0 1.0000000000e0
vn 0.0000000000e0 0.0000000000e0 1.0000000000e0
vn 0.0000000000e0 0.0000000000e0 1.0000000000e0
vn 0.0000000000e0 0.0000000000e0 1.0000000000e0
vn 0.0000000000e0 0.0000000000e0 1.0000000000e0
vn 0.0000000000e0 0.0000000000e0 1.0000000000e0
vn 0.0000000000e0 0.0000000000e0 1.0000000000e0
vn 0.0000000000e0 0.0000000000e0 1.0000000000e0
vn 0.0000000000e0 0.0000000000e0 1.0000000000e0
vn 0.0000000000e0 0.0000000000e0 1.0000000000e0
vn 0.0000000000e0 0.0000000000e0 1.0000000000e0
vn 0.0000000000e0 0.0000000000e0 1.0000000000e0
vn 0.0000000000e0 0.0000000000e0 1.0000000000e0
vn 0.0000000000e0 0.0000000000e0 1.0000000000e0
vn 0.0000000000e0 0.0000000000e0 1.0000000000e0
vn 0.0000000000e0 0.0000000000e0 1.0000000000e0
vn 0.0000000000e0 0.0000000000e0 1.0000000000e0
vn 0.0000000000e0 0.0000000000e0 1.0000000000e0
vn 0.0000000000e0 0.0000000000e0 1.0000000000e0
vn 0.0000000000e0 0.0000000000e0 1.0000000000e0
vn 0.0000000000e0 0.0000000000e0 1.0000000000e0
vn 0.0000000000e0 0.0000000000e0 1.0000000000e0
vn 0.0000000000e0 0.0000000000e0 1.0000000000e0
vn 0.0000000000e0 0.0000000000e0 1.0000000000e0
vn 0.0000000000e0 -1.0000000000e0 0.0000000000e0
vn 0.0000000000e0 -1.0000000000e0 0.0000000000e0
vn 0.0000000000e0 -1.0000000000e0 0.0000000000e0
vn 0.0000000000e0 -1.0000000000e0 0.0000000000e0
vn 0.0000000000e0 -1.0000000000e0 0.0000000000e0
vn 0.0000000000e0 -1.0000000000e0 0.0000000000e0
vn 0.0000000000e0 -1.0000000000e0 0.0000000000e0
vn 0.0000000000e0 -1.0000000000e0 0.0000000000e0
vn 0.0000000000e0 -1.0000000000e0 0.0000000000e0
vn 0.0000000000e0 -1.0000000000e0 0.0000000000e0
vn 0.0000000000e0 -1.0000000000e0 0.0000000000e0
vn 0.0000000000e0 -1.0000000000e0 0.0000000000e0
vn 0.0000000000e0 -1.0000000000e0 0.0000000000e0
vn 0.0000000000e0 -1.0000000000e0 0.0000000000e0
vn 0.0000000000e0 -1.0000000000e0 0.0000000000e0
vn 0.0000000000e0 -1.0000000000e0 0.0000000000e0
vn 0.0000000000e0 -1.0000000000e0 0.0000000000e0
vn 0.0000000000e0 -1.0000000000e0 0.0000000000e0
vn 0.0000000000e0 -1.0000000000e0 0.0000000000e0
vn 0.0000000000e0 -1.0000000000e0 0.0000000000e0
vn 0.0000000000e0 -1.0000000000e0 0.0000000000e0
vn 0.0000000000e0 -1.0000000000e0 0.0000000000e0
vn 0.0000000000e0 -1.0000000000e0 0.0000000000e0
vn 0.0000000000e0 -1.0000000000e0 0.0000000000e0
vn 0.0000000000e0 -1.0000000000e0 0.0000000000e0
vn 0.0000000000e0 -1.0000000000e0 0.0000000000e0
vn 0.0000000000e0 -1.0000000000e0 0.0000000000e0
vn 0.0000000000e0 -1.0000000000e0 0.0000000000e0
vn 0.0000000000e0 -1.0000000000e0 0.0000000000e0
vn 0.0000000000e0 -1.0000000000e0 0.0000000000e0
vn 0.0000000000e0 -1.0000000000e0 0.0000000000e0
vn 0.0000000000e0 -1.0000000000e0 0.0000000000e0
vn 1.0000000000e0 0.0000000000e0 0.0000000000e0
vn 1.0000000000e0 0.0000000000e0 0.0000000000e0
vn 1.0000000000e0 0.0000000000e0 0.0000000000e0
vn 1.0000000000e0 0.0000000000e0 0.0000000000e0
vn 1.0000000000e0 0.0000000000e0 0.0000000000e0
vn 1.0000000000e0 0.0000000000e0 0.0000000000e0
vn 1.0000000000e0 0.0000000000e0 0.0000000000e0
vn 1.0000000000e0 0.0000000000e0 0.0000000000e0
vn 1.0000000000e0 0.0000000000e0 0.0000000000e0
vn 1.0000000000e0 0.0000000000e0 0.0000000000e0
vn 1.0000000000e0 0.0000000000e0 0.0000000000e0
vn 1.0000000000e0 0.0000000000e0 0.0000000000e0
vn 1.0000000000e0 0.0000000000e0 0.0000000000e0
vn 1.0000000000e0 0.0000000000e0 0.0000000000e0
vn 1.0000000000e0 0.0000000000e0 0.0000000000e0
vn 1.0000000000e0 0.0000000000e0 0.0000000000e0
vn 1.0000000000e0 0.0000000000e0 0.0000000000e0
vn 1.0000000000e0 0.0000000000e0 0.0000000000e0
vn 1.0000000000e0 0.0000000000e0 0.0000000000e0
vn 1.0000000000e0 0.0000000000e0 0.0000000000e0
vn 1.0000000000e0 0.0000000000e0 0.0000000000e0
vn 1.0000000000e0 0.0000000000e0 0.0000000000e0
vn 1.0000000000e0 0.0000000000e0 0.0000000000e0
vn 1.0000000000e0 0.0000000000e0 0.0000000000e0
vn 1.0000000000e0 0.0000000000e0 0.0000000000e0
vn 1.0000000000e0 0.0000000000e0 0.0000000000e0
vn 1.0000000000e0 0.0000000000e0 0.0000000000e0
vn 1.0000000000e0 0.0000000000e0 0.0000000000e0
vn 1.0000000000e0 0.0000000000e0 0.0000000000e0
vn 1.0000000000e0 0.0000000000e0 0.0000000000e0
vn 1.0000000000e0 0.0000000000e0 0.0000000000e0
vn 1.0000000000e0 0.0000000000e0 0.0000000000e0
vn -0.0000000000e0 1.0000000000e0 -0.0000000000e0
vn -0.0000000000e0 1.0000000000e0 -0.0000000000e0
vn -0.0000000000e0 1.0000000000e0 -0.0000000000e0
vn -0.0000000000e0 1.0000000000e0 -0.0000000000e0
vn -0.0000000000e0 1.0000000000e0 -0.0000000000e0
vn -0.0000000000e0 1.0000000000e0 -0.0000000000e0
vn -0.0000000000e0 1.0000000000e0 -0.0000000000e0
vn -0.0000000000e0 1.0000000000e0 -0.0000000000e0
vn -0.0000000000e0 1.0000000000e0 -0.0000000000e0
vn -0.0000000000e0 1.0000000000e0 -0.0000000000e0
vn -0.0000000000e0 1.0000000000e0 -0.0000000000e0
vn -0.0000000000e0 1.0000000000e0 -0.0000000000e0
vn -0.0000000000e0 1.0000000000e0 -0.0000000000e0
vn -0.0000000000e0 1.0000000000e0 -0.0000000000e0
vn -0.0000000000e0 1.0000000000e0 -0.0000000000e0
vn -0.0000000000e0 1.0000000000e0 -0.0000000000e0
vn -0.0000000000e0 1.0000000000e0 -0.0000000000e0
vn -0.0000000000e0 1.0000000000e0 -0.0000000000e0
vn -0.0000000000e0 1.0000000000e0 -0.0000000000e0
vn -0.0000000000e0 1.0000000000e0 -0.0000000000e0
vn -0.0000000000e0 1.0000000000e0 -0.0000000000e0
vn -0.0000000000e0 1.0000000000e0 -0.0000000000e0
vn -0.0000000000e0 1.0000000000e0 -0.0000000000e0
vn -0.0000000000e0 1.0000000000e0 -0.0000000000e0
vn -0.0000000000e0 1.0000000000e0 -0.0000000000e0
vn -0.0000000000e0 1.0000000000e0 -0.0000000000e0
vn -0.0000000000e0 1.0000000000e0 -0.0000000000e0
vn -0.0000000000e0 1.0000000000e0 -0.0000000000e0
vn -0.0000000000e0 1.0000000000e0 -0.0000000000e0
vn -0.0000000000e0 1.0000000000e0 -0.0000000000e0
vn -0.0000000000e0 1.0000000000e0 -0.0000000000e0
vn -0.0000000000e0 1.0000000000e0 -0.0000000000e0
vn -0.0000000000e0 -0.0000000000e0 -1.0000000000e0
vn -0.0000000000e0 -0.0000000000e0 -1.0000000000e0
vn -0.0000000000e0 -0.0000000000e0 -1.0000000000e0
vn -0.0000000000e0 -0.0000000000e0 -1.0000000000e0
vn -0.0000000000e0 -0.0000000000e0 -1.0000000000e0
vn -0.0000000000e0 -0.0000000000e0 -1.0000000000e0
vn -0.0000000000e0 -0.0000000000e0 -1.0000000000e0
vn -0.0000000000e0 -0.0000000000e0 -1.0000000000e0
vn -0.0000000000e0 -0.0000000000e0 -1.0000000000e0
vn -0.0000000000e0 -0.0000000000e0 -1.0000000000e0
vn -0.0000000000e0 -0.0000000000e0 -1.0000000000e0
vn -0.0000000000e0 -0.0000000000e0 -1.0000000000e0
vn -0.0000000000e0 -0.0000000000e0 -1.0000000000e0
vn -0.0000000000e0 -0.0000000000e0 -1.0000000000e0
vn -0.0000000000e0 -0.0000000000e0 -1.0000000000e0
vn -0.0000000000e0 -0.0000000000e0 -1.0000000000e0
vn -0.0000000000e0 -0.0000000000e0 -1.0000000000e0
vn -0.0000000000e0 -0.0000000000e0 -1.0000000000e0
vn -0.0000000000e0 -0.0000000000e0 -1.0000000000e0
vn -0.0000000000e0 -0.0000000000e0 -1.0000000000e0
vn -0.0000000000e0 -0.0000000000e0 -1.0000000000e0
vn -0.0000000000e0 -0.0000000000e0 -1.0000000000e0
vn -0.0000000000e0 -0.0000000000e0 -1.0000000000e0
vn -0.0000000000e0 -0.0000000000e0 -1.0000000000e0
vn -0.0000000000e0 -0.0000000000e0 -1.0000000000e0
vn -0.0000000000e0 -0.0000000000e0 -1.0000000000e0
vn -0.0000000000e0 -0.0000000000e0 -1.0000000000e0
vn -0.0000000000e0 -0.0000000000e0 -1.0000000000e0
vn -0.0000000000e0 -0.0000000000e0 -1.0000000000e0
vn -0.0000000000e0 -0.0000000000e0 -1.0000000000e0
vn -0.0000000000e0 -0.0000000000e0 -1.0000000000e0
vn -0.0000000000e0 -0.0000000000e0 -1.0000000000e0
vn -0.0000000000e0 -0.0000000000e0 -1.0000000000e0
vn -0.0000000000e0 -0.0000000000e0 -1.0000000000e0
vn -0.0000000000e0 -0.0000000000e0 -1.0000000000e0
vn -0.0000000000e0 -0.0000000000e0 -1.0000000000e0
vn -0.0000000000e0 -0.0000000000e0 -1.0000000000e0
vn -0.0000000000e0 -0.0000000000e0 -1.0000000000e0
vn -0.0000000000e0 -0.0000000000e0 -1.0000000000e0
vn -0.0000000000e0 -0.0000000000e0 -1.0000000000e0
vn -0.0000000000e0 -0.0000000000e0 -1.0000000000e0
vn -0.0000000000e0 -0.0000000000e0 -1.0000000000e0
vn -0.0000000000e0 -0.0000000000e0 -1.0000000000e0
vn -0.0000000000e0 -0.0000000000e0 -1.0000000000e0
vn -0.0000000000e0 -0.0000000000e0 -1.0000000000e0
vn -0.0000000000e0 -0.0000000000e0 -1.0000000000e0
vn -0.0000000000e0 -0.0000000000e0 -1.0000000000e0
vn -0.0000000000e0 -0.0000000000e0 -1.0000000000e0
vn -0.0000000000e0 -0.0000000000e0 -1.0000000000e0
vn -0.0000000000e0 -0.0000000000e0 -1.0000000000e0
vn -1.0000000000e0 -0.0000000000e0 -0.0000000000e0
vn -1.0000000000e0 -0.0000000000e0 -0.0000000000e0
vn -1.0000000000e0 -0.0000000000e0 -0.0000000000e0
vn -1.0000000000e0 -0.0000000000e0 -0.0000000000e0
vn -1.0000000000e0 -0.0000000000e0 -0.0000000000e0
vn -1.0000000000e0 -0.0000000000e0 -0.0000000000e0
vn -1.0000000000e0 -0.0000000000e0 -0.0000000000e0
vn -1.0000000000e0 -0.0000000000e0 -0.0000000000e0
vn -1.0000000000e0 -0.0000000000e0 -0.0000000000e0
vn -1.0000000000e0 -0.0000000000e0 -0.0000000000e0
vn -1.0000000000e0 -0.0000000000e0 -0.0000000000e0
vn -1.0000000000e0 -0.0000000000e0 -0.0000000000e0
vn -1.0000000000e0 -0.0000000000e0 -0.0000000000e0
vn -1.0000000000e0 -0.0000000000e0 -0.0000000000e0
vn -1.0000000000e0 -0.0000000000e0 -0.0000000000e0
vn -1.0000000000e0 -0.0000000000e0 -0.0000000000e0
vn -1.0000000000e0 -0.0000000000e0 -0.0000000000e0
vn -1.0000000000e0 -0.0000000000e0 -0.0000000000e0
vn -1.0000000000e0 -0.0000000000e0 -0.0000000000e0
vn -1.0000000000e0 -0.0000000000e0 -0.0000000000e0
vn -1.0000000000e0 -0.0000000000e0 -0.0000000000e0
vn -1.0000000000e0 -0.0000000000e0 -0.0000000000e0
vn -1.0000000000e0 -0.0000000000e0 -0.0000000000e0
vn -1.0000000000e0 -0.0000000000e0 -0.0000000000e0
vn -1.0000000000e0 -0.0000000000e0 -0.0000000000e0
vn -1.0000000000e0 -0.0000000000e0 -0.0000000000e0
vn -1.0000000000e0 -0.0000000000e0 -0.0000000000e0
vn -1.0000000000e0 -0.0000000000e0 -0.0000000000e0
vn -1.0000000000e0 -0.0000000000e0 -0.0000000000e0
vn -1.0000000000e0 -0.0000000000e0 -0.0000000000e0
vn -1.0000000000e0 -0.0000000000e0 -0.0000000000e0
vn -1.0000000000e0 -0.0000000000e0 -0.0000000000e0
vn 8.6602540378e-1 -5.0000000000e-1 -0.0000000000e0
vn 6.6998140068e-1 -7.4237788406e-1 -0.0000000000e0
vn 4.4489589422e-1 -8.9558229287e-1 -0.0000000000e0
vn -6.1232339957e-17 -1.0000000000e0 -0.0000000000e0
vn -4.4489589422e-1 -8.9558229287e-1 -0.0000000000e0
vn -6.6998140068e-1 -7.4237788406e-1 -0.0000000000e0
vn -8.6602540378e-1 -5.0000000000e-1 -0.0000000000e0
vn -8.6602540378e-1 -5.0000000000e-1 -0.0000000000e0
vn -8.6602540378e-1 -5.0000000000e-1 -0.0000000000e0
vn -8.6602540378e-1 -5.0000000000e-1 -0.0000000000e0
vn -8.6602540378e-1 -5.0000000000e-1 -0.0000000000e0
vn -8.6602540378e-1 -5.0000000000e-1 -0.0000000000e0
vn -8.6602540378e-1 -5.0000000000e-1 -0.0000000000e0
vn -8.6602540378e-1 -5.0000000000e-1 -0.0000000000e0
vn -8.6602540378e-1 -5.0000000000e-1 -0.0000000000e0
vn -6.6998140068e-1 -7.4237788406e-1 -0.0000000000e0
vn -4.4489589422e-1 -8.9558229287e-1 -0.0000000000e0
vn -6.1232339957e-17 -1.0000000000e0 -0.0000000000e0
vn 4.4489589422e-1 -8.9558229287e-1 -0.0000000000e0
vn 6.6998140068e-1 -7.4237788406e-1 -0.0000000000e0
vn 8.6602540378e-1 -5.0000000000e-1 -0.0000000000e0
vn 8.6602540378e-1 -5.0000000000e-1 -0.0000000000e0
vn 8.6602540378e-1 -5.0000000000e-1 -0.0000000000e0
vn 8.6602540378e-1 -5.0000000000e-1 -0.0000000000e0
vn 8.6602540378e-1 -5.0000000000e-1 -0.0000000000e0
vn 8.6602540378e-1 -5.0000000000e-1 -0.0000000000e0
vn 8.6602540378e-1 -5.0000000000e-1 -0.0000000000e0
vn 8.6602540378e-1 -5.0000000000e-1 -0.0000000000e0
vn -5.0000000000e-1 -8.6602540378e-1 -0.0000000000e0
vn -5.0000000000e-1 -8.6602540378e-1 -0.0000000000e0
vn 5.0000000000e-1 -8.6602540378e-1 -0.0000000000e0
vn 5.0000000000e-1 -8.6602540378e-1 -0.0000000000e0
vn 8.6602540378e-1 -5.0000000000e-1 -0.0000000000e0
vn 8.6602540378e-1 -5.0000000000e-1 -0.0000000000e0
vn 8.6602540378e-1 -5.0000000000e-1 -0.0000000000e0
vn 8.6602540378e-1 -5.0000000000e-1 -0.0000000000e0
vn 8.6602540378e-1 -5.0000000000e-1 -0.0000000000e0
vn 8.6602540378e-1 -5.0000000000e-1 -0.0000000000e0
vn 8.6602540378e-1 -5.0000000000e-1 -0.0000000000e0
vn 8.6602540378e-1 -5.0000000000e-1 -0.0000000000e0
vn 8.6602540378e-1 -5.0000000000e-1 -0.0000000000e0
vn 9.7790880715e-1 -2.0903197102e-1 -0.0000000000e0
vn 9.9804496392e-1 6.2500000000e-2 -0.0000000000e0
vn 8.6602540378e-1 5.0000000000e-1 -0.0000000000e0
vn 5.5314906970e-1 8.3308229287e-1 -0.0000000000e0
vn 3.0792740647e-1 9.5140985508e-1 -0.0000000000e0
vn 1.8369701987e-16 1.0000000000e0 -0.0000000000e0
vn 1.8369701987e-16 1.0000000000e0 -0.0000000000e0
vn 1.8369701987e-16 1.0000000000e0 -0.0000000000e0
vn 1.8369701987e-16 1.0000000000e0 -0.0000000000e0
vn 1.8369701987e-16 1.0000000000e0 -0.0000000000e0
vn 1.8369701987e-16 1.0000000000e0 -0.0000000000e0
vn 1.8369701987e-16 1.0000000000e0 -0.0000000000e0
vn 1.8369701987e-16 1.0000000000e0 -0.0000000000e0
vn 1.8369701987e-16 1.0000000000e0 -0.0000000000e0
vn 3.0792740647e-1 9.5140985508e-1 -0.0000000000e0
vn 5.5314906970e-1 8.3308229287e-1 -0.0000000000e0
vn 8.6602540378e-1 5.0000000000e-1 -0.0000000000e0
vn 9.9804496392e-1 6.2500000000e-2 -0.0000000000e0
vn 9.7790880715e-1 -2.0903197102e-1 -0.0000000000e0
vn 1.0000000000e0 -1.2246467991e-16 -0.0000000000e0
vn 1.0000000000e0 -1.2246467991e-16 -0.0000000000e0
vn 5.0000000000e-1 8.6602540378e-1 -0.0000000000e0
vn 5.0000000000e-1 8.6602540378e-1 -0.0000000000e0
vn 1.8369701987e-16 1.0000000000e0 -0.0000000000e0
vn 1.8369701987e-16 1.0000000000e0 -0.0000000000e0
vn 1.8369701987e-16 1.0000000000e0 -0.0000000000e0
vn 1.8369701987e-16 1.0000000000e0 -0.0000000000e0
vn 1.8369701987e-16 1.0000000000e0 -0.0000000000e0
vn 1.8369701987e-16 1.0000000000e0 -0.0000000000e0
vn 1.8369701987e-16 1.0000000000e0 -0.0000000000e0
vn 1.8369701987e-16 1.0000000000e0 -0.0000000000e0
vn 1.8369701987e-16 1.0000000000e0 -0.0000000000e0
vn -3.0792740647e-1 9.5140985508e-1 -0.0000000000e0
vn -5.5314906970e-1 8.3308229287e-1 -0.0000000000e0
vn -8.6602540378e-1 5.0000000000e-1 -0.0000000000e0
vn -9.9804496392e-1 6.2500000000e-2 -0.0000000000e0
vn -9.7790880715e-1 -2.0903197102e-1 -0.0000000000e0
vn -8.6602540378e-1 -5.0000000000e-1 -0.0000000000e0
vn -8.6602540378e-1 -5.0000000000e-1 -0.0000000000e0
vn -8.6602540378e-1 -5.0000000000e-1 -0.0000000000e0
vn -8.6602540378e-1 -5.0000000000e-1 -0.0000000000e0
vn -8.6602540378e-1 -5.0000000000e-1 -0.0000000000e0
vn -8.6602540378e-1 -5.0000000000e-1 -0.0000000000e0
vn -8.6602540378e-1 -5.0000000000e-1 -0.0000000000e0
vn -8.6602540378e-1 -5.0000000000e-1 -0.0000000000e0
vn -8.6602540378e-1 -5.0000000000e-1 -0.0000000000e0
vn -9.7790880715e-1 -2.0903197102e-1 -0.0000000000e0
vn -9.9804496392e-1 6.2500000000e-2 -0.0000000000e0
vn -8.6602540378e-1 5.0000000000e-1 -0.0000000000e0
vn -5.5314906970e-1 8.3308229287e-1 -0.0000000000e0
vn -3.0792740647e-1 9.5140985508e-1 -0.0000000000e0
vn -5.0000000000e-1 8.6602540378e-1 -0.0000000000e0
vn -5.0000000000e-1 8.6602540378e-1 -0.0000000000e0
vn -1.0000000000e0 2.4492935983e-16 -0.0000000000e0
vn -1.0000000000e0 2.4492935983e-16 -0.0000000000e0
f 26/26/26 34/34/34 24/24/24
f 2/2/2 3/3/3 31/31/31
f 7/7/7 8/8/8 10/10/10
f 8/8/8 9/9/9 10/10/10
f 10/10/10 11/11/11 7/7/7
f 4/4/4 5/5/5 46/46/46
f 15/15/15 16/16/16 38/38/38
f 17/17/17 18/18/18 16/16/16
f 18/18/18 38/38/38 16/16/16
f 13/13/13 14/14/14 40/40/40
f 49/49/49 50/50/50 29/29/29
f 21/21/21 22/22/22 36/36/36
f 22/22/22 23/23/23 35/35/35
f 24/24/24 25/25/25 26/26/26
f 23/23/23 24/24/24 34/34/34
f 27/27/27 34/34/34 26/26/26
f 28/28/28 33/33/33 27/27/27
f 48/48/48 49/49/49 30/30/30
f 2/2/2 31/31/31 32/32/32
f 2/2/2 32/32/32 1/1/1
f 42/42/42 43/43/43 11/11/11
f 20/20/20 21/21/21 36/36/36
f 33/33/33 34/34/34 27/27/27
f 19/19/19 20/20/20 37/37/37
f 34/34/34 35/35/35 23/23/23
f 19/19/19 38/38/38 18/18/18
f 35/35/35 36/36/36 22/22/22
f 14/14/14 15/15/15 39/39/39
f 36/36/36 37/37/37 20/20/20
f 12/12/12 13/13/13 41/41/41
f 37/37/37 38/38/38 19/19/19
f 11/11/11 12/12/12 42/42/42
f 38/38/38 39/39/39 15/15/15
f 7/7/7 11/11/11 43/43/43
f 39/39/39 40/40/40 14/14/14
f 40/40/40 41/41/41 13/13/13
f 6/6/6 7/7/7 43/43/43
f 5/5/5 6/6/6 44/44/44
f 41/41/41 42/42/42 12/12/12
f 3/3/3 4/4/4 47/47/47
f 43/43/43 44/44/44 6/6/6
f 31/31/31 3/3/3 47/47/47
f 44/44/44 45/45/45 5/5/5
f 30/30/30 31/31/31 48/48/48
f 45/45/45 46/46/46 5/5/5
f 29/29/29 30/30/30 49/49/49
f 46/46/46 47/47/47 4/4/4
f 47/47/47 48/48/48 31/31/31
f 28/28/28 29/29/29 50/50/50
f 50/50/50 33/33/33 28/28/28
f 76/76/76 77/77/77 73/73/73
f 52/52/52 53/53/53 81/81/81
f 53/53/53 54/54/54 80/80/80
f 54/54/54 55/55/55 79/79/79
f 55/55/55 56/56/56 62/62/62
f 56/56/56 57/57/57 61/61/61
f 57/57/57 58/58/58 60/60/60
f 58/58/58 59/59/59 60/60/60
f 60/60/60 61/61/61 57/57/57
f 61/61/61 62/62/62 56/56/56
f 62/62/62 63/63/63 55/55/55
f 55/55/55 63/63/63 71/71/71
f 63/63/63 64/64/64 70/70/70
f 64/64/64 65/65/65 69/69/69
f 66/66/66 68/68/68 65/65/65
f 67/67/67 68/68/68 66/66/66
f 68/68/68 69/69/69 65/65/65
f 69/69/69 70/70/70 64/64/64
f 70/70/70 71/71/71 63/63/63
f 55/55/55 71/71/71 79/79/79
f 72/72/72 78/78/78 71/71/71
f 72/72/72 73/73/73 77/77/77
f 74/74/74 75/75/75 76/76/76
f 74/74/74 76/76/76 73/73/73
f 77/77/77 78/78/78 72/72/72
f 78/78/78 79/79/79 71/71/71
f 79/79/79 80/80/80 54/54/54
f 80/80/80 81/81/81 53/53/53
f 52/52/52 81/81/81 82/82/82
f 52/52/52 82/82/82 51/51/51
f 108/108/108 109/109/109 105/105/105
f 84/84/84 85/85/85 113/113/113
f 85/85/85 86/86/86 112/112/112
f 86/86/86 87/87/87 111/111/111
f 87/87/87 88/88/88 94/94/94
f 88/88/88 89/89/89 93/93/93
f 89/89/89 90/90/90 92/92/92
f 90/90/90 91/91/91 92/92/92
f 92/92/92 93/93/93 89/89/89
f 93/93/93 94/94/94 88/88/88
f 94/94/94 95/95/95 87/87/87
f 87/87/87 95/95/95 103/103/103
f 95/95/95 96/96/96 102/102/102
f 96/96/96 97/97/97 101/101/101
f 98/98/98 100/100/100 97/97/97
f 99/99/99 100/100/100 98/98/98
f 100/100/100 101/101/101 97/97/97
f 101/101/101 102/102/102 96/96/96
f 102/102/102 103/103/103 95/95/95
f 87/87/87 103/103/103 111/111/111
f 104/104/104 110/110/110 103/103/103
f 104/104/104 105/105/105 109/109/109
f 106/106/106 107/107/107 108/108/108
f 106/106/106 108/108/108 105/105/105
f 109/109/109 110/110/110 104/104/104
f 110/110/110 111/111/111 103/103/103
f 111/111/111 112/112/112 86/86/86
f 112/112/112 113/113/113 85/85/85
f 84/84/84 113/113/113 114/114/114
f 84/84/84 114/114/114 83/83/83
f 137/137/137 141/141/141 140/140/140
f 145/145/145 117/117/117 116/116/116
f 144/144/144 118/118/118 117/117/117
f 143/143/143 119/119/119 118/118/118
f 126/126/126 120/120/120 119/119/119
f 125/125/125 121/121/121 120/120/120
f 124/124/124 122/122/122 121/121/121
f 124/124/124 123/123/123 122/122/122
f 121/121/121 125/125/125 124/124/124
f 120/120/120 126/126/126 125/125/125
f 119/119/119 127/127/127 126/126/126
f 135/135/135 127/127/127 119/119/119
f 134/134/134 128/128/128 127/127/127
f 133/133/133 129/129/129 128/128/128
f 129/129/129 132/132/132 130/130/130
f 130/130/130 132/132/132 131/131/131
f 129/129/129 133/133/133 132/132/132
f 128/128/128 134/134/134 133/133/133
f 127/127/127 135/135/135 134/134/134
f 143/143/143 135/135/135 119/119/119
f 135/135/135 142/142/142 136/136/136
f 141/141/141 137/137/137 136/136/136
f 140/140/140 139/139/139 138/138/138
f 137/137/137 140/140/140 138/138/138
f 136/136/136 142/142/142 141/141/141
f 135/135/135 143/143/143 142/142/142
f 118/118/118 144/144/144 143/143/143
f 117/117/117 145/145/145 144/144/144
f 146/146/146 145/145/145 116/116/116
f 115/115/115 146/146/146 116/116/116
f 170/170/170 180/180/180 172/172/172
f 177/177/177 149/149/149 148/148/148
f 156/156/156 154/154/154 153/153/153
f 156/156/156 155/155/155 154/154/154
f 153/153/153 157/157/157 156/156/156
f 192/192/192 151/151/151 150/150/150
f 184/184/184 162/162/162 161/161/161
f 162/162/162 164/164/164 163/163/163
f 162/162/162 184/184/184 164/164/164
f 186/186/186 160/160/160 159/159/159
f 175/175/175 196/196/196 195/195/195
f 182/182/182 168/168/168 167/167/167
f 181/181/181 169/169/169 168/168/168
f 172/172/172 171/171/171 170/170/170
f 180/180/180 170/170/170 169/169/169
f 172/172/172 180/180/180 173/173/173
f 173/173/173 179/179/179 174/174/174
f 176/176/176 195/195/195 194/194/194
f 178/178/178 177/177/177 148/148/148
f 147/147/147 178/178/178 148/148/148
f 157/157/157 189/189/189 188/188/188
f 182/182/182 167/167/167 166/166/166
f 173/173/173 180/180/180 179/179/179
f 183/183/183 166/166/166 165/165/165
f 169/169/169 181/181/181 180/180/180
f 164/164/164 184/184/184 165/165/165
f 168/168/168 182/182/182 181/181/181
f 185/185/185 161/161/161 160/160/160
f 166/166/166 183/183/183 182/182/182
f 187/187/187 159/159/159 158/158/158
f 165/165/165 184/184/184 183/183/183
f 188/188/188 158/158/158 157/157/157
f 161/161/161 185/185/185 184/184/184
f 189/189/189 157/157/157 153/153/153
f 160/160/160 186/186/186 185/185/185
f 159/159/159 187/187/187 186/186/186
f 189/189/189 153/153/153 152/152/152
f 190/190/190 152/152/152 151/151/151
f 158/158/158 188/188/188 187/187/187
f 193/193/193 150/150/150 149/149/149
f 152/152/152 190/190/190 189/189/189
f 193/193/193 149/149/149 177/177/177
f 151/151/151 191/191/191 190/190/190
f 194/194/194 177/177/177 176/176/176
f 151/151/151 192/192/192 191/191/191
f 195/195/195 176/176/176 175/175/175
f 150/150/150 193/193/193 192/192/192
f 177/177/177 194/194/194 193/193/193
f 196/196/196 175/175/175 174/174/174
f 174/174/174 179/179/179 196/196/196
f 219/219/219 223/223/223 222/222/222
f 227/227/227 199/199/199 198/198/198
f 226/226/226 200/200/200 199/199/199
f 225/225/225 201/201/201 200/200/200
f 208/208/208 202/202/202 201/201/201
f 207/207/207 203/203/203 202/202/202
f 206/206/206 204/204/204 203/203/203
f 206/206/206 205/205/205 204/204/204
f 203/203/203 207/207/207 206/206/206
f 202/202/202 208/208/208 207/207/207
f 201/201/201 209/209/209 208/208/208
f 217/217/217 209/209/209 201/201/201
f 216/216/216 210/210/210 209/209/209
f 215/215/215 211/211/211 210/210/210
f 211/211/211 214/214/214 212/212/212
f 212/212/212 214/214/214 213/213/213
f 211/211/211 215/215/215 214/214/214
f 210/210/210 216/216/216 215/215/215
f 209/209/209 217/217/217 216/216/216
f 225/225/225 217/217/217 201/201/201
f 217/217/217 224/224/224 218/218/218
f 223/223/223 219/219/219 218/218/218
f 222/222/222 221/221/221 220/220/220
f 219/219/219 222/222/222 220/220/220
f 218/218/218 224/224/224 223/223/223
f 217/217/217 225/225/225 224/224/224
f 200/200/200 226/226/226 225/225/225
f 199/199/199 227/227/227 226/226/226
f 228/228/228 227/227/227 198/198/198
f 197/197/197 228/228/228 198/198/198
f 248/248/248 251/251/251 250/250/250
f 260/260/260 230/230/230 254/254/254
f 246/246/246 232/232/232 231/231/231
f 245/245/245 233/233/233 232/232/232
f 257/257/257 258/258/258 233/233/233
f 236/236/236 235/235/235 234/234/234
f 234/234/234 237/237/237 236/236/236
f 234/234/234 238/238/238 237/237/237
f 258/258/258 239/239/239 238/238/238
f 257/257/257 233/233/233 245/245/245
f 258/258/258 257/257/257 239/239/239
f 240/240/240 244/244/244 241/241/241
f 241/241/241 244/244/244 242/242/242
f 242/242/242 244/244/244 243/243/243
f 257/257/257 244/244/244 240/240/240
f 232/232/232 246/246/246 245/245/245
f 231/231/231 247/247/247 246/246/246
f 260/260/260 259/259/259 231/231/231
f 250/250/250 249/249/249 248/248/248
f 231/231/231 259/259/259 247/247/247
f 248/248/248 252/252/252 251/251/251
f 259/259/259 253/253/253 252/252/252
f 259/259/259 260/260/260 253/253/253
f 255/255/255 254/254/254 230/230/230
f 256/256/256 255/255/255 230/230/230
f 229/229/229 256/256/256 230/230/230
f 239/239/239 257/257/257 240/240/240
f 234/234/234 258/258/258 238/238/238
f 248/248/248 259/259/259 252/252/252
f 253/253/253 260/260/260 254/254/254
f 292/292/292 284/284/284 280/280/280
f 288/288/288 263/263/263 262/262/262
f 288/288/288 264/264/264 263/263/263
f 290/290/290 265/265/265 264/264/264
f 290/290/290 289/289/289 265/265/265
f 270/270/270 267/267/267 266/266/266
f 270/270/270 268/268/268 267/267/267
f 270/270/270 269/269/269 268/268/268
f 289/289/289 270/270/270 266/266/266
f 289/289/289 287/287/287 271/271/271
f 282/282/282 284/284/284 283/283/283
f 285/285/285 273/273/273 272/272/272
f 285/285/285 291/291/291 273/273/273
f 274/274/274 276/276/276 275/275/275
f 274/274/274 277/277/277 276/276/276
f 274/274/274 278/278/278 277/277/277
f 291/291/291 279/279/279 278/278/278
f 292/292/292 291/291/291 285/285/285
f 291/291/291 292/292/292 279/279/279
f 280/280/280 284/284/284 281/281/281
f 281/281/281 284/284/284 282/282/282
f 286/286/286 272/272/272 271/271/271
f 272/272/272 286/286/286 285/285/285
f 271/271/271 287/287/287 286/286/286
f 289/289/289 290/290/290 287/287/287
f 261/261/261 288/288/288 262/262/262
f 265/265/265 289/289/289 266/266/266
f 288/288/288 290/290/290 264/264/264
f 274/274/274 291/291/291 278/278/278
f 279/279/279 292/292/292 280/280/280
f 324/324/324 316/316/316 312/312/312
f 320/320/320 295/295/295 294/294/294
f 320/320/320 296/296/296 295/295/295
f 322/322/322 297/297/297 296/296/296
f 322/322/322 321/321/321 297/297/297
f 302/302/302 299/299/299 298/298/298
f 302/302/302 300/300/300 299/299/299
f 302/302/302 301/301/301 300/300/300
f 321/321/321 302/302/302 298/298/298
f 321/321/321 319/319/319 303/303/303
f 314/314/314 316/316/316 315/315/315
f 317/317/317 305/305/305 304/304/304
f 317/317/317 323/323/323 305/305/305
f 306/306/306 308/308/308 307/307/307
f 306/306/306 309/309/309 308/308/308
f 306/306/306 310/310/310 309/309/309
f 323/323/323 311/311/311 310/310/310
f 324/324/324 323/323/323 317/317/317
f 323/323/323 324/324/324 311/311/311
f 312/312/312 316/316/316 313/313/313
f 313/313/313 316/316/316 314/314/314
f 318/318/318 304/304/304 303/303/303
f 304/304/304 318/318/318 317/317/317
f 303/303/303 319/319/319 318/318/318
f 321/321/321 322/322/322 319/319/319
f 293/293/293 320/320/320 294/294/294
f 297/297/297 321/321/321 298/298/298
f 320/320/320 322/322/322 296/296/296
f 306/306/306 323/323/323 310/310/310
f 311/311/311 324/324/324 312/312/312
